M48
;GenerationSoftware,Autodesk,EAGLE,9.7.0*%
;CreationDate,2025-04-27T13:34:14Z*%
FMAT,2
ICI,OFF
METRIC,TZ,000.000
T7C0.350
T6C0.700
T5C0.800
T4C0.813
T3C1.000
T2C2.000
T1C3.200
%
G90
M71
T1
X90000Y5000
X90000Y85000
X20000Y78000
T2
X18800Y36250
X18800Y51250
X6300Y58750
X6300Y43750
X6300Y28750
X18800Y21250
X6300Y13750
X18800Y6250
T3
X91959Y17722
X91959Y14722
X78250Y45402
X75710Y45402
X75710Y30162
X91959Y20722
X80790Y45402
X83330Y45402
X85870Y45402
X78250Y30162
X88410Y45402
X80790Y30162
X90950Y45402
X90950Y30162
X88410Y30162
X85870Y30162
X83330Y30162
T4
X20000Y65000
X20000Y74000
X20000Y82417
X34000Y68000
X33848Y53000
X34100Y4700
X34000Y22000
X34000Y37000
T5
X9400Y72500
X12400Y77300
X6600Y77300
T6
G00X92409Y11472
M15
G01X91509Y11472
M16
X91959Y11472
G00X92409Y23972
M15
G01X91509Y23972
M16
X91959Y23972
T7
G05
X4300Y88300
X3100Y88300
X1900Y88300
X7900Y87100
X6700Y87100
X5500Y87100
X4300Y87100
X3100Y87100
X1900Y87100
X7900Y85900
X6700Y85900
X5500Y85900
X4300Y85900
X3100Y85900
X1900Y85900
X5500Y84700
X4300Y84700
X3100Y84700
X1900Y84700
X7900Y83500
X5500Y83500
X4300Y83500
X3100Y83500
X1900Y83500
X7900Y82300
X5500Y82300
X4300Y82300
X3100Y82300
X1900Y82300
X7900Y81100
X5500Y81100
X4300Y81100
X3100Y81100
X1900Y81100
X7900Y79900
X4300Y79900
X3100Y79900
X1900Y79900
X4300Y78700
X3100Y78700
X9100Y3100
X7900Y3100
X6700Y3100
X5500Y3100
X4300Y3100
X3100Y3100
X1900Y3100
X33100Y1900
X31900Y1900
X30700Y1900
X29500Y1900
X28300Y1900
X27100Y1900
X25900Y1900
X24700Y1900
X23500Y1900
X22300Y1900
X21100Y1900
X19900Y1900
X18700Y1900
X17500Y1900
X16300Y1900
X15100Y1900
X13900Y1900
X12700Y1900
X11500Y1900
X10300Y1900
X9100Y1900
X7900Y1900
X6700Y1900
X5500Y1900
X4300Y1900
X3100Y1900
X1900Y1900
X10300Y3100
X11500Y3100
X12700Y3100
X13900Y3100
X1900Y4300
X3100Y4300
X4300Y4300
X5500Y4300
X6700Y4300
X7900Y4300
X9100Y4300
X10300Y4300
X11500Y4300
X12700Y4300
X13900Y4300
X1900Y5500
X3100Y5500
X4300Y5500
X5500Y5500
X6700Y5500
X7900Y5500
X9100Y5500
X10300Y5500
X11500Y5500
X12700Y5500
X13900Y5500
X1900Y6700
X3100Y6700
X4300Y6700
X5500Y6700
X6700Y6700
X7900Y6700
X9100Y6700
X10300Y6700
X11500Y6700
X12700Y6700
X13900Y6700
X1900Y7900
X3100Y7900
X4300Y7900
X5500Y7900
X6700Y7900
X7900Y7900
X9100Y7900
X10300Y7900
X11500Y7900
X12700Y7900
X13900Y7900
X1900Y9100
X3100Y9100
X4300Y9100
X5500Y9100
X6700Y9100
X7900Y9100
X9100Y9100
X10300Y9100
X11500Y9100
X12700Y9100
X13900Y9100
X1900Y10300
X3100Y10300
X1900Y11500
X3100Y11500
X1900Y12700
X3100Y12700
X1900Y13900
X3100Y13900
X1900Y15100
X3100Y15100
X1900Y16300
X3100Y16300
X1900Y17500
X3100Y17500
X1900Y18700
X3100Y18700
X4300Y18700
X5500Y18700
X6700Y18700
X7900Y18700
X9100Y18700
X10300Y18700
X11500Y18700
X12700Y18700
X13900Y18700
X1900Y19900
X3100Y19900
X4300Y19900
X5500Y19900
X6700Y19900
X7900Y19900
X9100Y19900
X10300Y19900
X11500Y19900
X12700Y19900
X13900Y19900
X1900Y21100
X3100Y21100
X4300Y21100
X5500Y21100
X6700Y21100
X7900Y21100
X9100Y21100
X10300Y21100
X11500Y21100
X12700Y21100
X13900Y21100
X1900Y22300
X3100Y22300
X4300Y22300
X5500Y22300
X6700Y22300
X7900Y22300
X9100Y22300
X10300Y22300
X11500Y22300
X12700Y22300
X13900Y22300
X1900Y23500
X3100Y23500
X4300Y23500
X5500Y23500
X6700Y23500
X7900Y23500
X9100Y23500
X10300Y23500
X11500Y23500
X12700Y23500
X13900Y23500
X1900Y24700
X3100Y24700
X1900Y25900
X3100Y25900
X1900Y27100
X3100Y27100
X1900Y28300
X3100Y28300
X1900Y29500
X3100Y29500
X1900Y30700
X3100Y30700
X1900Y31900
X3100Y31900
X4300Y31900
X5500Y31900
X6700Y31900
X7900Y31900
X9100Y31900
X10300Y31900
X11500Y31900
X12700Y31900
X13900Y31900
X1900Y33100
X3100Y33100
X4300Y33100
X5500Y33100
X6700Y33100
X7900Y33100
X9100Y33100
X10300Y33100
X11500Y33100
X12700Y33100
X13900Y33100
X1900Y34300
X3100Y34300
X4300Y34300
X5500Y34300
X6700Y34300
X7900Y34300
X9100Y34300
X10300Y34300
X11500Y34300
X12700Y34300
X13900Y34300
X1900Y35500
X3100Y35500
X4300Y35500
X5500Y35500
X6700Y35500
X7900Y35500
X9100Y35500
X10300Y35500
X11500Y35500
X12700Y35500
X13900Y35500
X1900Y36700
X3100Y36700
X4300Y36700
X5500Y36700
X6700Y36700
X7900Y36700
X9100Y36700
X10300Y36700
X11500Y36700
X12700Y36700
X13900Y36700
X1900Y37900
X3100Y37900
X4300Y37900
X5500Y37900
X6700Y37900
X7900Y37900
X9100Y37900
X10300Y37900
X11500Y37900
X12700Y37900
X13900Y37900
X1900Y39100
X3100Y39100
X4300Y39100
X5500Y39100
X6700Y39100
X7900Y39100
X9100Y39100
X10300Y39100
X11500Y39100
X12700Y39100
X13900Y39100
X1900Y40300
X3100Y40300
X4300Y40300
X5500Y40300
X6700Y40300
X7900Y40300
X9100Y40300
X10300Y40300
X11500Y40300
X12700Y40300
X13900Y40300
X1900Y41500
X3100Y41500
X1900Y42700
X3100Y42700
X1900Y43900
X3100Y43900
X1900Y45100
X3100Y45100
X1900Y46300
X3100Y46300
X1900Y47500
X3100Y47500
X1900Y48700
X3100Y48700
X1900Y49900
X3100Y49900
X1900Y51100
X3100Y51100
X1900Y52300
X3100Y52300
X1900Y53500
X3100Y53500
X1900Y54700
X3100Y54700
X1900Y55900
X3100Y55900
X1900Y57100
X3100Y57100
X1900Y58300
X3100Y58300
X1900Y59500
X3100Y59500
X1900Y60700
X3100Y60700
X1900Y61900
X3100Y61900
X4300Y61900
X5500Y61900
X6700Y61900
X7900Y61900
X1900Y63100
X3100Y63100
X4300Y63100
X5500Y63100
X6700Y63100
X7900Y63100
X9100Y63100
X1900Y64300
X3100Y64300
X4300Y64300
X5500Y64300
X6700Y64300
X7900Y64300
X1900Y65500
X3100Y65500
X4300Y65500
X5500Y65500
X6700Y65500
X7900Y65500
X1900Y66700
X3100Y66700
X4300Y66700
X5500Y66700
X6700Y66700
X7900Y66700
X1900Y67900
X3100Y67900
X4300Y67900
X5500Y67900
X6700Y67900
X74000Y3700
X9100Y67900
X1900Y69100
X3100Y69100
X4300Y69100
X5500Y69100
X6700Y69100
X7900Y69100
X9100Y69100
X1900Y70300
X3100Y70300
X4300Y70300
X5500Y70300
X6700Y70300
X7900Y70300
X9100Y70300
X1900Y71500
X3100Y71500
X4300Y71500
X5500Y71500
X6700Y71500
X1900Y72700
X3100Y72700
X4300Y72700
X5500Y72700
X1900Y73900
X3100Y73900
X4300Y73900
X5500Y73900
X6700Y73900
X1900Y75100
X3100Y75100
X4300Y75100
X1900Y76300
X3100Y76300
X4300Y76300
X1900Y77500
X3100Y77500
X4300Y77500
X1900Y78700
X60400Y73100
X59200Y73100
X54400Y73100
X60400Y71900
X59200Y71900
X54400Y71900
X60400Y70700
X59200Y70700
X54400Y70700
X60400Y69500
X59200Y69500
X58000Y69500
X56800Y69500
X59200Y65900
X60400Y65900
X59200Y67100
X60400Y67100
X59200Y68300
X60400Y68300
X54400Y69500
X55600Y69500
X60400Y57500
X59200Y57500
X54400Y57500
X60400Y56300
X59200Y56300
X54400Y56300
X60400Y55100
X59200Y55100
X54400Y55100
X60400Y53900
X59200Y53900
X58000Y53900
X59200Y50300
X60400Y50300
X59200Y51500
X60400Y51500
X59200Y52700
X60400Y52700
X54400Y53900
X60600Y41800
X59400Y41800
X54600Y41800
X60600Y40600
X59400Y40600
X54600Y40600
X60600Y39400
X59400Y39400
X54600Y39400
X60600Y38200
X59400Y38200
X59400Y34600
X60600Y34600
X59400Y35800
X60600Y35800
X59400Y37000
X60600Y37000
X54600Y38200
X60707Y26100
X59507Y26100
X54707Y26100
X60707Y24900
X59507Y24900
X54707Y24900
X60707Y23700
X59507Y23700
X54707Y23700
X60707Y22500
X59507Y22500
X59507Y20100
X60707Y20100
X59507Y21300
X60707Y21300
X54707Y22500
X60500Y10500
X59300Y10500
X54500Y10500
X60500Y9300
X59300Y9300
X54500Y9300
X60500Y8100
X59300Y8100
X54500Y8100
X60500Y6900
X59300Y6900
X59300Y3300
X60500Y3300
X59300Y4500
X60500Y4500
X59300Y5700
X60500Y5700
X54500Y6900
X77700Y87700
X76500Y87700
X75300Y87700
X74100Y87700
X66900Y84100
X65700Y84100
X64500Y84100
X63300Y84100
X62100Y84100
X60900Y84100
X59700Y84100
X58500Y84100
X68100Y84100
X69300Y84100
X70500Y84100
X71700Y84100
X72900Y84100
X74100Y84100
X75300Y84100
X76500Y84100
X77700Y84100
X58500Y85300
X59700Y85300
X60900Y85300
X62100Y85300
X63300Y85300
X64500Y85300
X65700Y85300
X66900Y85300
X68100Y85300
X69300Y85300
X70500Y85300
X71700Y85300
X72900Y85300
X74100Y85300
X75300Y85300
X76500Y85300
X77700Y85300
X58500Y86500
X59700Y86500
X60900Y86500
X62100Y86500
X63300Y86500
X64500Y86500
X65700Y86500
X66900Y86500
X68100Y86500
X69300Y86500
X70500Y86500
X71700Y86500
X72900Y86500
X74100Y86500
X75300Y86500
X76500Y86500
X77700Y86500
X58500Y87700
X59700Y87700
X60900Y87700
X62100Y87700
X63300Y87700
X64500Y87700
X65700Y87700
X66900Y87700
X68100Y87700
X69300Y87700
X70500Y87700
X71700Y87700
X72900Y87700
X56100Y78900
X54900Y78900
X53700Y78900
X52500Y78900
X56100Y77700
X54900Y77700
X53700Y77700
X52500Y77700
X52500Y76500
X53700Y76500
X54900Y76500
X56100Y76500
X63600Y17200
X62400Y17200
X61200Y17200
X60000Y17200
X58800Y17200
X63600Y16000
X62400Y16000
X61200Y16000
X52800Y16000
X54000Y16000
X55200Y16000
X56400Y16000
X57600Y16000
X58800Y16000
X60000Y16000
X56300Y31400
X55100Y31400
X53900Y31400
X52700Y31400
X56300Y30200
X55100Y30200
X53900Y30200
X52700Y30200
X52700Y29000
X53900Y29000
X55100Y29000
X56300Y29000
X56300Y47100
X55100Y47100
X53900Y47100
X52700Y47100
X56300Y45900
X55100Y45900
X53900Y45900
X52700Y45900
X52700Y44700
X53900Y44700
X55100Y44700
X56300Y44700
X56100Y62800
X54900Y62800
X53700Y62800
X52500Y62800
X56100Y61600
X54900Y61600
X53700Y61600
X52500Y61600
X52500Y60400
X53700Y60400
X54900Y60400
X56100Y60400
X29600Y81300
X26000Y81300
X24800Y81300
X23600Y81300
X22400Y81300
X17600Y81300
X16400Y81300
X15200Y81300
X14000Y81300
X12800Y81300
X11600Y81300
X10400Y81300
X24800Y80100
X23600Y80100
X22400Y80100
X17600Y80100
X16400Y80100
X15200Y80100
X14000Y80100
X11600Y80100
X10400Y80100
X24800Y78900
X23600Y78900
X16400Y78900
X15200Y78900
X10400Y78900
X24800Y77700
X23600Y77700
X16400Y77700
X15200Y77700
X24800Y76500
X23600Y76500
X16400Y76500
X15200Y76500
X29600Y75300
X28400Y75300
X27200Y75300
X26000Y75300
X24800Y75300
X23600Y75300
X29600Y69300
X28400Y69300
X27200Y69300
X26000Y69300
X29600Y68100
X28400Y68100
X27200Y68100
X26000Y68100
X26000Y70500
X27200Y70500
X28400Y70500
X29600Y70500
X15200Y71700
X16400Y71700
X17600Y71700
X18800Y71700
X20000Y71700
X21200Y71700
X22400Y71700
X23600Y71700
X24800Y71700
X26000Y71700
X27200Y71700
X28400Y71700
X29600Y71700
X14000Y72900
X15200Y72900
X16400Y72900
X17600Y72900
X22400Y72900
X23600Y72900
X24800Y72900
X26000Y72900
X27200Y72900
X28400Y72900
X29600Y72900
X14000Y74100
X15200Y74100
X16400Y74100
X17600Y74100
X22400Y74100
X23600Y74100
X24800Y74100
X26000Y74100
X27200Y74100
X28400Y74100
X29600Y74100
X15200Y75300
X16400Y75300
X17600Y75300
X22400Y75300
X51800Y81300
X50600Y81300
X49400Y81300
X48200Y81300
X47000Y81300
X45800Y81300
X44600Y81300
X43400Y81300
X42200Y81300
X41000Y81300
X31400Y81300
X32600Y81300
X33800Y81300
X35000Y81300
X36200Y81300
X37400Y81300
X38600Y81300
X39800Y81300
X5500Y88300
X6700Y88300
X7900Y88300
X35900Y64500
X37100Y64500
X35900Y65700
X37100Y65700
X35900Y66900
X37100Y66900
X37100Y68100
X37300Y51100
X36100Y51100
X37300Y49900
X36100Y49900
X37300Y48700
X36100Y48700
X37500Y35400
X36300Y35400
X37500Y34200
X36300Y34200
X37500Y33000
X36300Y33000
X37400Y19700
X36200Y19700
X37400Y18500
X36200Y18500
X37400Y17300
X36200Y17300
X37400Y3900
X36200Y3900
X37400Y2700
X36200Y2700
X37400Y1500
X36200Y1500
X90346Y58846
X71728Y39228
X75000Y55400
X75500Y70600
X74000Y24100
X74000Y7800
X7900Y67900
M30