G04 EAGLE Gerber RS-274X export*
G75*
%MOMM*%
%FSLAX34Y34*%
%LPD*%
%INBottom Copper*%
%IPPOS*%
%AMOC8*
5,1,8,0,0,1.08239X$1,22.5*%
G01*
G04 Define Apertures*
%ADD10C,1.700000*%
%ADD11R,3.000000X3.000000*%
%ADD12C,3.000000*%
%ADD13C,1.800000*%
%ADD14C,1.508000*%
%ADD15C,1.208000*%
%ADD16P,1.73204X8X22.5*%
%ADD17C,0.756400*%
G36*
X789534Y8226D02*
X789339Y8187D01*
X381499Y9206D01*
X381320Y9240D01*
X381152Y9347D01*
X381040Y9511D01*
X381000Y9706D01*
X381000Y151500D01*
X381034Y151680D01*
X381141Y151848D01*
X381305Y151960D01*
X381500Y152000D01*
X644954Y152000D01*
X644991Y152007D01*
X645000Y152050D01*
X645000Y194954D01*
X644993Y194991D01*
X644950Y195000D01*
X578500Y195000D01*
X578320Y195034D01*
X578152Y195141D01*
X578040Y195305D01*
X578000Y195500D01*
X578000Y208954D01*
X577993Y208991D01*
X577950Y209000D01*
X541507Y209000D01*
X541320Y209036D01*
X541154Y209146D01*
X541044Y209311D01*
X541007Y209507D01*
X541993Y280507D01*
X542027Y280680D01*
X542134Y280848D01*
X542298Y280960D01*
X542493Y281000D01*
X578954Y281000D01*
X578991Y281007D01*
X579000Y281050D01*
X579000Y328954D01*
X578993Y328991D01*
X578950Y329000D01*
X540500Y329000D01*
X540320Y329034D01*
X540152Y329141D01*
X540040Y329305D01*
X540000Y329500D01*
X540000Y436500D01*
X540034Y436680D01*
X540141Y436848D01*
X540305Y436960D01*
X540500Y437000D01*
X579954Y437000D01*
X579991Y437007D01*
X580000Y437050D01*
X580000Y486954D01*
X579993Y486991D01*
X579950Y487000D01*
X538500Y487000D01*
X538320Y487034D01*
X538152Y487141D01*
X538040Y487305D01*
X538000Y487500D01*
X538000Y593500D01*
X538034Y593680D01*
X538141Y593848D01*
X538305Y593960D01*
X538500Y594000D01*
X579954Y594000D01*
X579991Y594007D01*
X580000Y594050D01*
X580000Y645954D01*
X579993Y645991D01*
X579950Y646000D01*
X538500Y646000D01*
X538320Y646034D01*
X538152Y646141D01*
X538040Y646305D01*
X538000Y646500D01*
X538000Y754500D01*
X538034Y754680D01*
X538141Y754848D01*
X538305Y754960D01*
X538500Y755000D01*
X577954Y755000D01*
X577991Y755007D01*
X578000Y755050D01*
X578000Y889340D01*
X578034Y889520D01*
X578141Y889688D01*
X578305Y889800D01*
X578500Y889840D01*
X789340Y889840D01*
X789520Y889806D01*
X789688Y889699D01*
X789800Y889535D01*
X789840Y889340D01*
X789840Y847979D01*
X791387Y844245D01*
X794245Y841387D01*
X797979Y839840D01*
X852021Y839840D01*
X855755Y841387D01*
X858613Y844245D01*
X860160Y847979D01*
X860160Y889445D01*
X860192Y889621D01*
X860297Y889789D01*
X860460Y889903D01*
X860655Y889945D01*
X940323Y890734D01*
X940509Y890700D01*
X940676Y890593D01*
X940789Y890428D01*
X940828Y890233D01*
X939852Y9553D01*
X939820Y9378D01*
X939714Y9210D01*
X939551Y9096D01*
X939357Y9054D01*
X860665Y8267D01*
X860480Y8301D01*
X860312Y8408D01*
X860200Y8572D01*
X860160Y8767D01*
X860160Y50021D01*
X858613Y53755D01*
X855755Y56613D01*
X852021Y58160D01*
X797979Y58160D01*
X794245Y56613D01*
X791387Y53755D01*
X789840Y50021D01*
X789840Y8687D01*
X789806Y8505D01*
X789698Y8338D01*
X789534Y8226D01*
G37*
%LPC*%
G36*
X896556Y823840D02*
X903444Y823840D01*
X910097Y825623D01*
X916063Y829067D01*
X920933Y833937D01*
X924377Y839903D01*
X926160Y846556D01*
X926160Y853444D01*
X924377Y860097D01*
X920933Y866063D01*
X916063Y870933D01*
X910097Y874377D01*
X903444Y876160D01*
X896556Y876160D01*
X889903Y874377D01*
X883937Y870933D01*
X879067Y866063D01*
X875623Y860097D01*
X873840Y853444D01*
X873840Y846556D01*
X875623Y839903D01*
X879067Y833937D01*
X883937Y829067D01*
X889903Y825623D01*
X896556Y823840D01*
G37*
G36*
X907506Y444000D02*
X911494Y444000D01*
X915178Y445526D01*
X917998Y448346D01*
X919524Y452030D01*
X919524Y473018D01*
X917998Y476702D01*
X915178Y479522D01*
X911494Y481048D01*
X907506Y481048D01*
X903822Y479522D01*
X901002Y476702D01*
X899476Y473018D01*
X899476Y452030D01*
X901002Y448346D01*
X903822Y445526D01*
X907506Y444000D01*
G37*
G36*
X882106Y444000D02*
X886094Y444000D01*
X889778Y445526D01*
X892598Y448346D01*
X894124Y452030D01*
X894124Y473018D01*
X892598Y476702D01*
X889778Y479522D01*
X886094Y481048D01*
X882106Y481048D01*
X878422Y479522D01*
X875602Y476702D01*
X874076Y473018D01*
X874076Y452030D01*
X875602Y448346D01*
X878422Y445526D01*
X882106Y444000D01*
G37*
G36*
X856706Y444000D02*
X860694Y444000D01*
X864378Y445526D01*
X867198Y448346D01*
X868724Y452030D01*
X868724Y473018D01*
X867198Y476702D01*
X864378Y479522D01*
X860694Y481048D01*
X856706Y481048D01*
X853022Y479522D01*
X850202Y476702D01*
X848676Y473018D01*
X848676Y452030D01*
X850202Y448346D01*
X853022Y445526D01*
X856706Y444000D01*
G37*
G36*
X831306Y444000D02*
X835294Y444000D01*
X838978Y445526D01*
X841798Y448346D01*
X843324Y452030D01*
X843324Y473018D01*
X841798Y476702D01*
X838978Y479522D01*
X835294Y481048D01*
X831306Y481048D01*
X827622Y479522D01*
X824802Y476702D01*
X823276Y473018D01*
X823276Y452030D01*
X824802Y448346D01*
X827622Y445526D01*
X831306Y444000D01*
G37*
G36*
X805906Y444000D02*
X809894Y444000D01*
X813578Y445526D01*
X816398Y448346D01*
X817924Y452030D01*
X817924Y473018D01*
X816398Y476702D01*
X813578Y479522D01*
X809894Y481048D01*
X805906Y481048D01*
X802222Y479522D01*
X799402Y476702D01*
X797876Y473018D01*
X797876Y452030D01*
X799402Y448346D01*
X802222Y445526D01*
X805906Y444000D01*
G37*
G36*
X780506Y444000D02*
X784494Y444000D01*
X788178Y445526D01*
X790998Y448346D01*
X792524Y452030D01*
X792524Y473018D01*
X790998Y476702D01*
X788178Y479522D01*
X784494Y481048D01*
X780506Y481048D01*
X776822Y479522D01*
X774002Y476702D01*
X772476Y473018D01*
X772476Y452030D01*
X774002Y448346D01*
X776822Y445526D01*
X780506Y444000D01*
G37*
G36*
X755106Y444000D02*
X759094Y444000D01*
X762778Y445526D01*
X765598Y448346D01*
X767124Y452030D01*
X767124Y473018D01*
X765598Y476702D01*
X762778Y479522D01*
X759094Y481048D01*
X755106Y481048D01*
X751422Y479522D01*
X748602Y476702D01*
X747076Y473018D01*
X747076Y452030D01*
X748602Y448346D01*
X751422Y445526D01*
X755106Y444000D01*
G37*
G36*
X907506Y274600D02*
X911494Y274600D01*
X915178Y276126D01*
X917998Y278946D01*
X919524Y282630D01*
X919524Y303618D01*
X917998Y307302D01*
X915178Y310122D01*
X911494Y311648D01*
X907506Y311648D01*
X903822Y310122D01*
X901002Y307302D01*
X899476Y303618D01*
X899476Y282630D01*
X901002Y278946D01*
X903822Y276126D01*
X907506Y274600D01*
G37*
G36*
X856706Y274600D02*
X860694Y274600D01*
X864378Y276126D01*
X867198Y278946D01*
X868724Y282630D01*
X868724Y303618D01*
X867198Y307302D01*
X864378Y310122D01*
X860694Y311648D01*
X856706Y311648D01*
X853022Y310122D01*
X850202Y307302D01*
X848676Y303618D01*
X848676Y282630D01*
X850202Y278946D01*
X853022Y276126D01*
X856706Y274600D01*
G37*
G36*
X831306Y274600D02*
X835294Y274600D01*
X838978Y276126D01*
X841798Y278946D01*
X843324Y282630D01*
X843324Y303618D01*
X841798Y307302D01*
X838978Y310122D01*
X835294Y311648D01*
X831306Y311648D01*
X827622Y310122D01*
X824802Y307302D01*
X823276Y303618D01*
X823276Y282630D01*
X824802Y278946D01*
X827622Y276126D01*
X831306Y274600D01*
G37*
G36*
X805906Y274600D02*
X809894Y274600D01*
X813578Y276126D01*
X816398Y278946D01*
X817924Y282630D01*
X817924Y303618D01*
X816398Y307302D01*
X813578Y310122D01*
X809894Y311648D01*
X805906Y311648D01*
X802222Y310122D01*
X799402Y307302D01*
X797876Y303618D01*
X797876Y282630D01*
X799402Y278946D01*
X802222Y276126D01*
X805906Y274600D01*
G37*
G36*
X780506Y274600D02*
X784494Y274600D01*
X788178Y276126D01*
X790998Y278946D01*
X792524Y282630D01*
X792524Y303618D01*
X790998Y307302D01*
X788178Y310122D01*
X784494Y311648D01*
X780506Y311648D01*
X776822Y310122D01*
X774002Y307302D01*
X772476Y303618D01*
X772476Y282630D01*
X774002Y278946D01*
X776822Y276126D01*
X780506Y274600D01*
G37*
G36*
X755106Y274600D02*
X759094Y274600D01*
X762778Y276126D01*
X765598Y278946D01*
X767124Y282630D01*
X767124Y303618D01*
X765598Y307302D01*
X762778Y310122D01*
X759094Y311648D01*
X755106Y311648D01*
X751422Y310122D01*
X748602Y307302D01*
X747076Y303618D01*
X747076Y282630D01*
X748602Y278946D01*
X751422Y276126D01*
X755106Y274600D01*
G37*
G36*
X913581Y232152D02*
X925590Y232152D01*
X928370Y233304D01*
X930498Y235432D01*
X931650Y238212D01*
X931650Y241221D01*
X930498Y244001D01*
X928370Y246129D01*
X925590Y247280D01*
X913581Y247280D01*
X910801Y246129D01*
X908673Y244001D01*
X907522Y241221D01*
X907522Y238212D01*
X908673Y235432D01*
X910801Y233304D01*
X913581Y232152D01*
G37*
G36*
X917783Y198152D02*
X921389Y198152D01*
X924720Y199532D01*
X927270Y202082D01*
X928650Y205413D01*
X928650Y209019D01*
X927270Y212351D01*
X924720Y214900D01*
X921389Y216280D01*
X917783Y216280D01*
X914451Y214900D01*
X911902Y212351D01*
X910522Y209019D01*
X910522Y205413D01*
X911902Y202082D01*
X914451Y199532D01*
X917783Y198152D01*
G37*
G36*
X917783Y168152D02*
X921389Y168152D01*
X924720Y169532D01*
X927270Y172082D01*
X928650Y175413D01*
X928650Y179019D01*
X927270Y182351D01*
X924720Y184900D01*
X921389Y186280D01*
X917783Y186280D01*
X914451Y184900D01*
X911902Y182351D01*
X910522Y179019D01*
X910522Y175413D01*
X911902Y172082D01*
X914451Y169532D01*
X917783Y168152D01*
G37*
G36*
X913581Y107152D02*
X925590Y107152D01*
X928370Y108304D01*
X930498Y110432D01*
X931650Y113212D01*
X931650Y116221D01*
X930498Y119001D01*
X928370Y121129D01*
X925590Y122280D01*
X913581Y122280D01*
X910801Y121129D01*
X908673Y119001D01*
X907522Y116221D01*
X907522Y113212D01*
X908673Y110432D01*
X910801Y108304D01*
X913581Y107152D01*
G37*
G36*
X896556Y23840D02*
X903444Y23840D01*
X910097Y25623D01*
X916063Y29067D01*
X920933Y33937D01*
X924377Y39903D01*
X926160Y46556D01*
X926160Y53444D01*
X924377Y60097D01*
X920933Y66063D01*
X916063Y70933D01*
X910097Y74377D01*
X903444Y76160D01*
X896556Y76160D01*
X889903Y74377D01*
X883937Y70933D01*
X879067Y66063D01*
X875623Y60097D01*
X873840Y53444D01*
X873840Y46556D01*
X875623Y39903D01*
X879067Y33937D01*
X883937Y29067D01*
X889903Y25623D01*
X896556Y23840D01*
G37*
%LPD*%
G36*
X380533Y9269D02*
X380236Y9209D01*
X10920Y10133D01*
X10647Y10184D01*
X10392Y10347D01*
X10220Y10598D01*
X10160Y10895D01*
X10160Y889078D01*
X10211Y889353D01*
X10375Y889608D01*
X10625Y889780D01*
X10922Y889840D01*
X89299Y889840D01*
X89574Y889789D01*
X89829Y889625D01*
X90001Y889375D01*
X90061Y889078D01*
X90000Y755088D01*
X90025Y754983D01*
X90044Y754956D01*
X130777Y714223D01*
X130940Y713982D01*
X131000Y713684D01*
X131000Y533088D01*
X131025Y532983D01*
X131044Y532956D01*
X176938Y487062D01*
X177030Y487005D01*
X177062Y487000D01*
X193876Y487000D01*
X193882Y487000D01*
X193882Y487000D01*
X285895Y487708D01*
X285997Y487732D01*
X286025Y487752D01*
X307998Y509725D01*
X308002Y509730D01*
X327641Y529964D01*
X327869Y530125D01*
X328164Y530195D01*
X328463Y530144D01*
X328718Y529980D01*
X328890Y529730D01*
X328950Y529433D01*
X328950Y526055D01*
X334530Y520475D01*
X342420Y520475D01*
X348000Y526055D01*
X348000Y533945D01*
X342420Y539525D01*
X338723Y539525D01*
X338470Y539568D01*
X338210Y539724D01*
X338031Y539968D01*
X337961Y540264D01*
X338012Y540562D01*
X338176Y540818D01*
X343941Y546757D01*
X343994Y546845D01*
X344000Y546880D01*
X344000Y670214D01*
X344056Y670500D01*
X344223Y670753D01*
X349525Y676055D01*
X349525Y683945D01*
X347771Y685699D01*
X347618Y685919D01*
X347548Y686214D01*
X347599Y686513D01*
X347763Y686768D01*
X348013Y686940D01*
X348310Y687000D01*
X380238Y687000D01*
X380513Y686949D01*
X380768Y686785D01*
X380940Y686535D01*
X381000Y686238D01*
X381000Y9971D01*
X380948Y9695D01*
X380784Y9440D01*
X380533Y9269D01*
G37*
%LPC*%
G36*
X62762Y758762D02*
X69238Y758762D01*
X69238Y787238D01*
X62762Y787238D01*
X62762Y758762D01*
G37*
G36*
X79762Y721762D02*
X108238Y721762D01*
X108238Y728238D01*
X79762Y728238D01*
X79762Y721762D01*
G37*
G36*
X59713Y420976D02*
X66287Y420976D01*
X72360Y423492D01*
X77008Y428140D01*
X79524Y434213D01*
X79524Y440787D01*
X77008Y446860D01*
X72360Y451508D01*
X66287Y454024D01*
X59713Y454024D01*
X53640Y451508D01*
X48992Y446860D01*
X46476Y440787D01*
X46476Y434213D01*
X48992Y428140D01*
X53640Y423492D01*
X59713Y420976D01*
G37*
G36*
X336055Y360475D02*
X343945Y360475D01*
X349525Y366055D01*
X349525Y373945D01*
X343945Y379525D01*
X336055Y379525D01*
X330475Y373945D01*
X330475Y366055D01*
X336055Y360475D01*
G37*
G36*
X184713Y345976D02*
X191287Y345976D01*
X197360Y348492D01*
X202008Y353140D01*
X204524Y359213D01*
X204524Y365787D01*
X202008Y371860D01*
X197360Y376508D01*
X191287Y379024D01*
X184713Y379024D01*
X178640Y376508D01*
X173992Y371860D01*
X171476Y365787D01*
X171476Y359213D01*
X173992Y353140D01*
X178640Y348492D01*
X184713Y345976D01*
G37*
G36*
X59713Y270976D02*
X66287Y270976D01*
X72360Y273492D01*
X77008Y278140D01*
X79524Y284213D01*
X79524Y290787D01*
X77008Y296860D01*
X72360Y301508D01*
X66287Y304024D01*
X59713Y304024D01*
X53640Y301508D01*
X48992Y296860D01*
X46476Y290787D01*
X46476Y284213D01*
X48992Y278140D01*
X53640Y273492D01*
X59713Y270976D01*
G37*
G36*
X336055Y210475D02*
X343945Y210475D01*
X349525Y216055D01*
X349525Y223945D01*
X343945Y229525D01*
X336055Y229525D01*
X330475Y223945D01*
X330475Y216055D01*
X336055Y210475D01*
G37*
G36*
X184713Y195976D02*
X191287Y195976D01*
X197360Y198492D01*
X202008Y203140D01*
X204524Y209213D01*
X204524Y215787D01*
X202008Y221860D01*
X197360Y226508D01*
X191287Y229024D01*
X184713Y229024D01*
X178640Y226508D01*
X173992Y221860D01*
X171476Y215787D01*
X171476Y209213D01*
X173992Y203140D01*
X178640Y198492D01*
X184713Y195976D01*
G37*
G36*
X59713Y120976D02*
X66287Y120976D01*
X72360Y123492D01*
X77008Y128140D01*
X79524Y134213D01*
X79524Y140787D01*
X77008Y146860D01*
X72360Y151508D01*
X66287Y154024D01*
X59713Y154024D01*
X53640Y151508D01*
X48992Y146860D01*
X46476Y140787D01*
X46476Y134213D01*
X48992Y128140D01*
X53640Y123492D01*
X59713Y120976D01*
G37*
G36*
X184713Y45976D02*
X191287Y45976D01*
X197360Y48492D01*
X202008Y53140D01*
X204524Y59213D01*
X204524Y65787D01*
X202008Y71860D01*
X197360Y76508D01*
X191287Y79024D01*
X184713Y79024D01*
X178640Y76508D01*
X173992Y71860D01*
X171476Y65787D01*
X171476Y59213D01*
X173992Y53140D01*
X178640Y48492D01*
X184713Y45976D01*
G37*
G36*
X337055Y37475D02*
X344945Y37475D01*
X350525Y43055D01*
X350525Y50945D01*
X344945Y56525D01*
X337055Y56525D01*
X331475Y50945D01*
X331475Y43055D01*
X337055Y37475D01*
G37*
%LPD*%
G36*
X641695Y154040D02*
X641500Y154000D01*
X383190Y154000D01*
X383009Y154034D01*
X382842Y154141D01*
X382729Y154306D01*
X382690Y154501D01*
X383587Y689954D01*
X383580Y689991D01*
X383537Y690000D01*
X338500Y690000D01*
X338320Y690034D01*
X338152Y690141D01*
X338040Y690305D01*
X338000Y690500D01*
X338000Y889340D01*
X338034Y889520D01*
X338141Y889688D01*
X338305Y889800D01*
X338500Y889840D01*
X574500Y889840D01*
X574680Y889806D01*
X574848Y889699D01*
X574960Y889535D01*
X575000Y889340D01*
X575000Y759500D01*
X574966Y759320D01*
X574859Y759152D01*
X574695Y759040D01*
X574500Y759000D01*
X536046Y759000D01*
X536009Y758993D01*
X536000Y758950D01*
X536000Y642046D01*
X536007Y642009D01*
X536050Y642000D01*
X574500Y642000D01*
X574680Y641966D01*
X574848Y641859D01*
X574960Y641695D01*
X575000Y641500D01*
X575000Y598500D01*
X574966Y598320D01*
X574859Y598152D01*
X574695Y598040D01*
X574500Y598000D01*
X536046Y598000D01*
X536009Y597993D01*
X536000Y597950D01*
X536000Y483046D01*
X536007Y483009D01*
X536050Y483000D01*
X574500Y483000D01*
X574680Y482966D01*
X574848Y482859D01*
X574960Y482695D01*
X575000Y482500D01*
X575000Y441500D01*
X574966Y441320D01*
X574859Y441152D01*
X574695Y441040D01*
X574500Y441000D01*
X538046Y441000D01*
X538009Y440993D01*
X538000Y440950D01*
X538000Y326046D01*
X538007Y326009D01*
X538050Y326000D01*
X574500Y326000D01*
X574680Y325966D01*
X574848Y325859D01*
X574960Y325695D01*
X575000Y325500D01*
X575000Y284500D01*
X574966Y284320D01*
X574859Y284152D01*
X574695Y284040D01*
X574500Y284000D01*
X538046Y284000D01*
X538009Y283993D01*
X538000Y283950D01*
X538000Y207046D01*
X538007Y207009D01*
X538050Y207000D01*
X575500Y207000D01*
X575680Y206966D01*
X575848Y206859D01*
X575960Y206695D01*
X576000Y206500D01*
X576000Y193046D01*
X576007Y193009D01*
X576050Y193000D01*
X641500Y193000D01*
X641680Y192966D01*
X641848Y192859D01*
X641960Y192695D01*
X642000Y192500D01*
X642000Y154500D01*
X641966Y154320D01*
X641859Y154152D01*
X641695Y154040D01*
G37*
G36*
X283988Y490040D02*
X283793Y490000D01*
X179188Y490000D01*
X179000Y490037D01*
X178834Y490146D01*
X137304Y531676D01*
X137198Y531835D01*
X137158Y532030D01*
X137158Y712794D01*
X137150Y712836D01*
X137122Y712878D01*
X95146Y754854D01*
X95040Y755012D01*
X95000Y755207D01*
X95000Y889340D01*
X95034Y889520D01*
X95141Y889688D01*
X95305Y889800D01*
X95500Y889840D01*
X340500Y889840D01*
X340680Y889806D01*
X340848Y889699D01*
X340960Y889535D01*
X341000Y889340D01*
X341000Y690025D01*
X340966Y689845D01*
X340859Y689677D01*
X340695Y689565D01*
X340500Y689525D01*
X336055Y689525D01*
X330475Y683945D01*
X330475Y676055D01*
X336055Y670475D01*
X340500Y670475D01*
X340680Y670441D01*
X340848Y670334D01*
X340960Y670170D01*
X341000Y669975D01*
X341000Y547207D01*
X340963Y547019D01*
X340854Y546854D01*
X284146Y490146D01*
X283988Y490040D01*
G37*
%LPC*%
G36*
X196055Y814647D02*
X203945Y814647D01*
X209525Y820227D01*
X209525Y828117D01*
X203945Y833697D01*
X196055Y833697D01*
X190475Y828117D01*
X190475Y820227D01*
X196055Y814647D01*
G37*
G36*
X196556Y753840D02*
X203444Y753840D01*
X210097Y755623D01*
X216063Y759067D01*
X220933Y763937D01*
X224377Y769903D01*
X226160Y776556D01*
X226160Y783444D01*
X224377Y790097D01*
X220933Y796063D01*
X216063Y800933D01*
X210097Y804377D01*
X203444Y806160D01*
X196556Y806160D01*
X189903Y804377D01*
X183937Y800933D01*
X179067Y796063D01*
X175623Y790097D01*
X173840Y783444D01*
X173840Y776556D01*
X175623Y769903D01*
X179067Y763937D01*
X183937Y759067D01*
X189903Y755623D01*
X196556Y753840D01*
G37*
G36*
X120500Y758500D02*
X127500Y758500D01*
X127500Y787500D01*
X120500Y787500D01*
X120500Y758500D01*
G37*
G36*
X196055Y640475D02*
X203945Y640475D01*
X209525Y646055D01*
X209525Y653945D01*
X203945Y659525D01*
X196055Y659525D01*
X190475Y653945D01*
X190475Y646055D01*
X196055Y640475D01*
G37*
%LPD*%
D10*
X909500Y454024D02*
X909500Y471024D01*
X884100Y471024D02*
X884100Y454024D01*
X858700Y454024D02*
X858700Y471024D01*
X833300Y471024D02*
X833300Y454024D01*
X807900Y454024D02*
X807900Y471024D01*
X782500Y471024D02*
X782500Y454024D01*
X757100Y454024D02*
X757100Y471024D01*
X757100Y301624D02*
X757100Y284624D01*
X782500Y284624D02*
X782500Y301624D01*
X807900Y301624D02*
X807900Y284624D01*
X833300Y284624D02*
X833300Y301624D01*
X858700Y301624D02*
X858700Y284624D01*
X884100Y284624D02*
X884100Y301624D01*
X909500Y301624D02*
X909500Y284624D01*
D11*
X63000Y587500D03*
D12*
X188000Y512500D03*
X63000Y437500D03*
X188000Y362500D03*
X63000Y287500D03*
X188000Y212500D03*
X63000Y137500D03*
X188000Y62500D03*
D13*
X66000Y764000D02*
X66000Y782000D01*
X124000Y782000D02*
X124000Y764000D01*
X103000Y725000D02*
X85000Y725000D01*
D14*
X919586Y147216D03*
X919586Y177216D03*
X919586Y207216D03*
D15*
X924086Y114716D02*
X915086Y114716D01*
X915086Y239716D02*
X924086Y239716D01*
D16*
X341000Y47000D03*
X340000Y220000D03*
X340000Y370000D03*
X338475Y530000D03*
X340000Y680000D03*
X200000Y650000D03*
X200000Y740000D03*
X200000Y824172D03*
D17*
X362000Y15000D03*
X374000Y15000D03*
X362000Y27000D03*
X374000Y27000D03*
X362000Y39000D03*
X374000Y39000D03*
X362000Y173000D03*
X374000Y173000D03*
X362000Y185000D03*
X374000Y185000D03*
X362000Y197000D03*
X374000Y197000D03*
X363000Y330000D03*
X375000Y330000D03*
X363000Y342000D03*
X375000Y342000D03*
X363000Y354000D03*
X375000Y354000D03*
X361000Y487000D03*
X373000Y487000D03*
X361000Y499000D03*
X373000Y499000D03*
X361000Y511000D03*
X373000Y511000D03*
X371000Y681000D03*
X371000Y669000D03*
X359000Y669000D03*
X371000Y657000D03*
X359000Y657000D03*
X371000Y645000D03*
X359000Y645000D03*
X79000Y883000D03*
X67000Y883000D03*
X55000Y883000D03*
X43000Y883000D03*
X31000Y883000D03*
X19000Y883000D03*
X79000Y871000D03*
X67000Y871000D03*
X55000Y871000D03*
X43000Y871000D03*
X31000Y871000D03*
X19000Y871000D03*
X79000Y859000D03*
X67000Y859000D03*
X55000Y859000D03*
X43000Y859000D03*
X31000Y859000D03*
X19000Y859000D03*
X55000Y847000D03*
X43000Y847000D03*
X31000Y847000D03*
X19000Y847000D03*
X79000Y835000D03*
X55000Y835000D03*
X43000Y835000D03*
X31000Y835000D03*
X19000Y835000D03*
X79000Y823000D03*
X55000Y823000D03*
X43000Y823000D03*
X31000Y823000D03*
X19000Y823000D03*
X79000Y811000D03*
X55000Y811000D03*
X43000Y811000D03*
X31000Y811000D03*
X19000Y811000D03*
X79000Y799000D03*
X43000Y799000D03*
X31000Y799000D03*
X19000Y799000D03*
X43000Y787000D03*
X31000Y787000D03*
X91000Y31000D03*
X79000Y31000D03*
X67000Y31000D03*
X55000Y31000D03*
X43000Y31000D03*
X31000Y31000D03*
X19000Y31000D03*
X331000Y19000D03*
X319000Y19000D03*
X307000Y19000D03*
X295000Y19000D03*
X283000Y19000D03*
X271000Y19000D03*
X259000Y19000D03*
X247000Y19000D03*
X235000Y19000D03*
X223000Y19000D03*
X211000Y19000D03*
X199000Y19000D03*
X187000Y19000D03*
X175000Y19000D03*
X163000Y19000D03*
X151000Y19000D03*
X139000Y19000D03*
X127000Y19000D03*
X115000Y19000D03*
X103000Y19000D03*
X91000Y19000D03*
X79000Y19000D03*
X67000Y19000D03*
X55000Y19000D03*
X43000Y19000D03*
X31000Y19000D03*
X19000Y19000D03*
X103000Y31000D03*
X115000Y31000D03*
X127000Y31000D03*
X139000Y31000D03*
X19000Y43000D03*
X31000Y43000D03*
X43000Y43000D03*
X55000Y43000D03*
X67000Y43000D03*
X79000Y43000D03*
X91000Y43000D03*
X103000Y43000D03*
X115000Y43000D03*
X127000Y43000D03*
X139000Y43000D03*
X19000Y55000D03*
X31000Y55000D03*
X43000Y55000D03*
X55000Y55000D03*
X67000Y55000D03*
X79000Y55000D03*
X91000Y55000D03*
X103000Y55000D03*
X115000Y55000D03*
X127000Y55000D03*
X139000Y55000D03*
X19000Y67000D03*
X31000Y67000D03*
X43000Y67000D03*
X55000Y67000D03*
X67000Y67000D03*
X79000Y67000D03*
X91000Y67000D03*
X103000Y67000D03*
X115000Y67000D03*
X127000Y67000D03*
X139000Y67000D03*
X19000Y79000D03*
X31000Y79000D03*
X43000Y79000D03*
X55000Y79000D03*
X67000Y79000D03*
X79000Y79000D03*
X91000Y79000D03*
X103000Y79000D03*
X115000Y79000D03*
X127000Y79000D03*
X139000Y79000D03*
X19000Y91000D03*
X31000Y91000D03*
X43000Y91000D03*
X55000Y91000D03*
X67000Y91000D03*
X79000Y91000D03*
X91000Y91000D03*
X103000Y91000D03*
X115000Y91000D03*
X127000Y91000D03*
X139000Y91000D03*
X19000Y103000D03*
X31000Y103000D03*
X19000Y115000D03*
X31000Y115000D03*
X19000Y127000D03*
X31000Y127000D03*
X19000Y139000D03*
X31000Y139000D03*
X19000Y151000D03*
X31000Y151000D03*
X19000Y163000D03*
X31000Y163000D03*
X19000Y175000D03*
X31000Y175000D03*
X19000Y187000D03*
X31000Y187000D03*
X43000Y187000D03*
X55000Y187000D03*
X67000Y187000D03*
X79000Y187000D03*
X91000Y187000D03*
X103000Y187000D03*
X115000Y187000D03*
X127000Y187000D03*
X139000Y187000D03*
X19000Y199000D03*
X31000Y199000D03*
X43000Y199000D03*
X55000Y199000D03*
X67000Y199000D03*
X79000Y199000D03*
X91000Y199000D03*
X103000Y199000D03*
X115000Y199000D03*
X127000Y199000D03*
X139000Y199000D03*
X19000Y211000D03*
X31000Y211000D03*
X43000Y211000D03*
X55000Y211000D03*
X67000Y211000D03*
X79000Y211000D03*
X91000Y211000D03*
X103000Y211000D03*
X115000Y211000D03*
X127000Y211000D03*
X139000Y211000D03*
X19000Y223000D03*
X31000Y223000D03*
X43000Y223000D03*
X55000Y223000D03*
X67000Y223000D03*
X79000Y223000D03*
X91000Y223000D03*
X103000Y223000D03*
X115000Y223000D03*
X127000Y223000D03*
X139000Y223000D03*
X19000Y235000D03*
X31000Y235000D03*
X43000Y235000D03*
X55000Y235000D03*
X67000Y235000D03*
X79000Y235000D03*
X91000Y235000D03*
X103000Y235000D03*
X115000Y235000D03*
X127000Y235000D03*
X139000Y235000D03*
X19000Y247000D03*
X31000Y247000D03*
X19000Y259000D03*
X31000Y259000D03*
X19000Y271000D03*
X31000Y271000D03*
X19000Y283000D03*
X31000Y283000D03*
X19000Y295000D03*
X31000Y295000D03*
X19000Y307000D03*
X31000Y307000D03*
X19000Y319000D03*
X31000Y319000D03*
X43000Y319000D03*
X55000Y319000D03*
X67000Y319000D03*
X79000Y319000D03*
X91000Y319000D03*
X103000Y319000D03*
X115000Y319000D03*
X127000Y319000D03*
X139000Y319000D03*
X19000Y331000D03*
X31000Y331000D03*
X43000Y331000D03*
X55000Y331000D03*
X67000Y331000D03*
X79000Y331000D03*
X91000Y331000D03*
X103000Y331000D03*
X115000Y331000D03*
X127000Y331000D03*
X139000Y331000D03*
X19000Y343000D03*
X31000Y343000D03*
X43000Y343000D03*
X55000Y343000D03*
X67000Y343000D03*
X79000Y343000D03*
X91000Y343000D03*
X103000Y343000D03*
X115000Y343000D03*
X127000Y343000D03*
X139000Y343000D03*
X19000Y355000D03*
X31000Y355000D03*
X43000Y355000D03*
X55000Y355000D03*
X67000Y355000D03*
X79000Y355000D03*
X91000Y355000D03*
X103000Y355000D03*
X115000Y355000D03*
X127000Y355000D03*
X139000Y355000D03*
X19000Y367000D03*
X31000Y367000D03*
X43000Y367000D03*
X55000Y367000D03*
X67000Y367000D03*
X79000Y367000D03*
X91000Y367000D03*
X103000Y367000D03*
X115000Y367000D03*
X127000Y367000D03*
X139000Y367000D03*
X19000Y379000D03*
X31000Y379000D03*
X43000Y379000D03*
X55000Y379000D03*
X67000Y379000D03*
X79000Y379000D03*
X91000Y379000D03*
X103000Y379000D03*
X115000Y379000D03*
X127000Y379000D03*
X139000Y379000D03*
X19000Y391000D03*
X31000Y391000D03*
X43000Y391000D03*
X55000Y391000D03*
X67000Y391000D03*
X79000Y391000D03*
X91000Y391000D03*
X103000Y391000D03*
X115000Y391000D03*
X127000Y391000D03*
X139000Y391000D03*
X19000Y403000D03*
X31000Y403000D03*
X43000Y403000D03*
X55000Y403000D03*
X67000Y403000D03*
X79000Y403000D03*
X91000Y403000D03*
X103000Y403000D03*
X115000Y403000D03*
X127000Y403000D03*
X139000Y403000D03*
X19000Y415000D03*
X31000Y415000D03*
X19000Y427000D03*
X31000Y427000D03*
X19000Y439000D03*
X31000Y439000D03*
X19000Y451000D03*
X31000Y451000D03*
X19000Y463000D03*
X31000Y463000D03*
X19000Y475000D03*
X31000Y475000D03*
X19000Y487000D03*
X31000Y487000D03*
X19000Y499000D03*
X31000Y499000D03*
X19000Y511000D03*
X31000Y511000D03*
X19000Y523000D03*
X31000Y523000D03*
X19000Y535000D03*
X31000Y535000D03*
X19000Y547000D03*
X31000Y547000D03*
X19000Y559000D03*
X31000Y559000D03*
X19000Y571000D03*
X31000Y571000D03*
X19000Y583000D03*
X31000Y583000D03*
X19000Y595000D03*
X31000Y595000D03*
X19000Y607000D03*
X31000Y607000D03*
X19000Y619000D03*
X31000Y619000D03*
X43000Y619000D03*
X55000Y619000D03*
X67000Y619000D03*
X79000Y619000D03*
X19000Y631000D03*
X31000Y631000D03*
X43000Y631000D03*
X55000Y631000D03*
X67000Y631000D03*
X79000Y631000D03*
X91000Y631000D03*
X19000Y643000D03*
X31000Y643000D03*
X43000Y643000D03*
X55000Y643000D03*
X67000Y643000D03*
X79000Y643000D03*
X19000Y655000D03*
X31000Y655000D03*
X43000Y655000D03*
X55000Y655000D03*
X67000Y655000D03*
X79000Y655000D03*
X19000Y667000D03*
X31000Y667000D03*
X43000Y667000D03*
X55000Y667000D03*
X67000Y667000D03*
X79000Y667000D03*
X19000Y679000D03*
X31000Y679000D03*
X43000Y679000D03*
X55000Y679000D03*
X67000Y679000D03*
X79000Y679000D03*
X91000Y679000D03*
X19000Y691000D03*
X31000Y691000D03*
X43000Y691000D03*
X55000Y691000D03*
X67000Y691000D03*
X79000Y691000D03*
X91000Y691000D03*
X19000Y703000D03*
X31000Y703000D03*
X43000Y703000D03*
X55000Y703000D03*
X67000Y703000D03*
X79000Y703000D03*
X91000Y703000D03*
X19000Y715000D03*
X31000Y715000D03*
X43000Y715000D03*
X55000Y715000D03*
X67000Y715000D03*
X19000Y727000D03*
X31000Y727000D03*
X43000Y727000D03*
X55000Y727000D03*
X19000Y739000D03*
X31000Y739000D03*
X43000Y739000D03*
X55000Y739000D03*
X67000Y739000D03*
X19000Y751000D03*
X31000Y751000D03*
X43000Y751000D03*
X19000Y763000D03*
X31000Y763000D03*
X43000Y763000D03*
X19000Y775000D03*
X31000Y775000D03*
X43000Y775000D03*
X19000Y787000D03*
X604000Y731000D03*
X592000Y731000D03*
X544000Y731000D03*
X604000Y719000D03*
X592000Y719000D03*
X544000Y719000D03*
X604000Y707000D03*
X592000Y707000D03*
X544000Y707000D03*
X604000Y695000D03*
X592000Y695000D03*
X580000Y695000D03*
X568000Y695000D03*
X592000Y659000D03*
X604000Y659000D03*
X592000Y671000D03*
X604000Y671000D03*
X592000Y683000D03*
X604000Y683000D03*
X544000Y695000D03*
X556000Y695000D03*
X604000Y575000D03*
X592000Y575000D03*
X544000Y575000D03*
X604000Y563000D03*
X592000Y563000D03*
X544000Y563000D03*
X604000Y551000D03*
X592000Y551000D03*
X544000Y551000D03*
X604000Y539000D03*
X592000Y539000D03*
X580000Y539000D03*
X592000Y503000D03*
X604000Y503000D03*
X592000Y515000D03*
X604000Y515000D03*
X592000Y527000D03*
X604000Y527000D03*
X544000Y539000D03*
X606000Y418000D03*
X594000Y418000D03*
X546000Y418000D03*
X606000Y406000D03*
X594000Y406000D03*
X546000Y406000D03*
X606000Y394000D03*
X594000Y394000D03*
X546000Y394000D03*
X606000Y382000D03*
X594000Y382000D03*
X594000Y346000D03*
X606000Y346000D03*
X594000Y358000D03*
X606000Y358000D03*
X594000Y370000D03*
X606000Y370000D03*
X546000Y382000D03*
X607070Y261000D03*
X595070Y261000D03*
X547070Y261000D03*
X607070Y249000D03*
X595070Y249000D03*
X547070Y249000D03*
X607070Y237000D03*
X595070Y237000D03*
X547070Y237000D03*
X607070Y225000D03*
X595070Y225000D03*
X595070Y201000D03*
X607070Y201000D03*
X595070Y213000D03*
X607070Y213000D03*
X547070Y225000D03*
X605000Y105000D03*
X593000Y105000D03*
X545000Y105000D03*
X605000Y93000D03*
X593000Y93000D03*
X545000Y93000D03*
X605000Y81000D03*
X593000Y81000D03*
X545000Y81000D03*
X605000Y69000D03*
X593000Y69000D03*
X593000Y33000D03*
X605000Y33000D03*
X593000Y45000D03*
X605000Y45000D03*
X593000Y57000D03*
X605000Y57000D03*
X545000Y69000D03*
X740000Y37000D03*
X740000Y78000D03*
X740000Y241000D03*
X755000Y706000D03*
X750000Y554000D03*
X777000Y877000D03*
X765000Y877000D03*
X753000Y877000D03*
X741000Y877000D03*
X669000Y841000D03*
X657000Y841000D03*
X645000Y841000D03*
X633000Y841000D03*
X621000Y841000D03*
X609000Y841000D03*
X597000Y841000D03*
X585000Y841000D03*
X681000Y841000D03*
X693000Y841000D03*
X705000Y841000D03*
X717000Y841000D03*
X729000Y841000D03*
X741000Y841000D03*
X753000Y841000D03*
X765000Y841000D03*
X777000Y841000D03*
X585000Y853000D03*
X597000Y853000D03*
X609000Y853000D03*
X621000Y853000D03*
X633000Y853000D03*
X645000Y853000D03*
X657000Y853000D03*
X669000Y853000D03*
X681000Y853000D03*
X693000Y853000D03*
X705000Y853000D03*
X717000Y853000D03*
X729000Y853000D03*
X741000Y853000D03*
X753000Y853000D03*
X765000Y853000D03*
X777000Y853000D03*
X585000Y865000D03*
X597000Y865000D03*
X609000Y865000D03*
X621000Y865000D03*
X633000Y865000D03*
X645000Y865000D03*
X657000Y865000D03*
X669000Y865000D03*
X681000Y865000D03*
X693000Y865000D03*
X705000Y865000D03*
X717000Y865000D03*
X729000Y865000D03*
X741000Y865000D03*
X753000Y865000D03*
X765000Y865000D03*
X777000Y865000D03*
X585000Y877000D03*
X597000Y877000D03*
X609000Y877000D03*
X621000Y877000D03*
X633000Y877000D03*
X645000Y877000D03*
X657000Y877000D03*
X669000Y877000D03*
X681000Y877000D03*
X693000Y877000D03*
X705000Y877000D03*
X717000Y877000D03*
X729000Y877000D03*
X717282Y392282D03*
X903456Y588456D03*
X561000Y789000D03*
X549000Y789000D03*
X537000Y789000D03*
X525000Y789000D03*
X561000Y777000D03*
X549000Y777000D03*
X537000Y777000D03*
X525000Y777000D03*
X525000Y765000D03*
X537000Y765000D03*
X549000Y765000D03*
X561000Y765000D03*
X636000Y172000D03*
X624000Y172000D03*
X612000Y172000D03*
X600000Y172000D03*
X588000Y172000D03*
X636000Y160000D03*
X624000Y160000D03*
X612000Y160000D03*
X528000Y160000D03*
X540000Y160000D03*
X552000Y160000D03*
X564000Y160000D03*
X576000Y160000D03*
X588000Y160000D03*
X600000Y160000D03*
X563000Y314000D03*
X551000Y314000D03*
X539000Y314000D03*
X527000Y314000D03*
X563000Y302000D03*
X551000Y302000D03*
X539000Y302000D03*
X527000Y302000D03*
X527000Y290000D03*
X539000Y290000D03*
X551000Y290000D03*
X563000Y290000D03*
X563000Y471000D03*
X551000Y471000D03*
X539000Y471000D03*
X527000Y471000D03*
X563000Y459000D03*
X551000Y459000D03*
X539000Y459000D03*
X527000Y459000D03*
X527000Y447000D03*
X539000Y447000D03*
X551000Y447000D03*
X563000Y447000D03*
X561000Y628000D03*
X549000Y628000D03*
X537000Y628000D03*
X525000Y628000D03*
X561000Y616000D03*
X549000Y616000D03*
X537000Y616000D03*
X525000Y616000D03*
X525000Y604000D03*
X537000Y604000D03*
X549000Y604000D03*
X561000Y604000D03*
X296000Y813000D03*
X260000Y813000D03*
X248000Y813000D03*
X236000Y813000D03*
X224000Y813000D03*
X176000Y813000D03*
X164000Y813000D03*
X152000Y813000D03*
X140000Y813000D03*
X128000Y813000D03*
X116000Y813000D03*
X104000Y813000D03*
X248000Y801000D03*
X236000Y801000D03*
X224000Y801000D03*
X176000Y801000D03*
X164000Y801000D03*
X152000Y801000D03*
X140000Y801000D03*
X116000Y801000D03*
X104000Y801000D03*
X248000Y789000D03*
X236000Y789000D03*
X164000Y789000D03*
X152000Y789000D03*
X104000Y789000D03*
X248000Y777000D03*
X236000Y777000D03*
X164000Y777000D03*
X152000Y777000D03*
X248000Y765000D03*
X236000Y765000D03*
X164000Y765000D03*
X152000Y765000D03*
X296000Y753000D03*
X284000Y753000D03*
X272000Y753000D03*
X260000Y753000D03*
X248000Y753000D03*
X236000Y753000D03*
X296000Y693000D03*
X284000Y693000D03*
X272000Y693000D03*
X260000Y693000D03*
X296000Y681000D03*
X284000Y681000D03*
X272000Y681000D03*
X260000Y681000D03*
X260000Y705000D03*
X272000Y705000D03*
X284000Y705000D03*
X296000Y705000D03*
X152000Y717000D03*
X164000Y717000D03*
X176000Y717000D03*
X188000Y717000D03*
X200000Y717000D03*
X212000Y717000D03*
X224000Y717000D03*
X236000Y717000D03*
X248000Y717000D03*
X260000Y717000D03*
X272000Y717000D03*
X284000Y717000D03*
X296000Y717000D03*
X140000Y729000D03*
X152000Y729000D03*
X164000Y729000D03*
X176000Y729000D03*
X224000Y729000D03*
X236000Y729000D03*
X248000Y729000D03*
X260000Y729000D03*
X272000Y729000D03*
X284000Y729000D03*
X296000Y729000D03*
X140000Y741000D03*
X152000Y741000D03*
X164000Y741000D03*
X176000Y741000D03*
X224000Y741000D03*
X236000Y741000D03*
X248000Y741000D03*
X260000Y741000D03*
X272000Y741000D03*
X284000Y741000D03*
X296000Y741000D03*
X152000Y753000D03*
X164000Y753000D03*
X176000Y753000D03*
X224000Y753000D03*
X518000Y813000D03*
X506000Y813000D03*
X494000Y813000D03*
X482000Y813000D03*
X470000Y813000D03*
X458000Y813000D03*
X446000Y813000D03*
X434000Y813000D03*
X422000Y813000D03*
X410000Y813000D03*
X314000Y813000D03*
X326000Y813000D03*
X338000Y813000D03*
X350000Y813000D03*
X362000Y813000D03*
X374000Y813000D03*
X386000Y813000D03*
X398000Y813000D03*
M02*
