G04 EAGLE Gerber RS-274X export*
G75*
%MOMM*%
%FSLAX34Y34*%
%LPD*%
%INTop Copper*%
%IPPOS*%
%AMOC8*
5,1,8,0,0,1.08239X$1,22.5*%
G01*
G04 Define Apertures*
%ADD10C,1.700000*%
%ADD11R,1.600000X1.800000*%
%ADD12R,1.500000X0.650000*%
%ADD13R,1.525000X0.650000*%
%ADD14R,3.000000X3.000000*%
%ADD15C,3.000000*%
%ADD16C,1.800000*%
%ADD17C,1.508000*%
%ADD18C,1.208000*%
%ADD19R,2.475000X3.000000*%
%ADD20R,3.000000X2.475000*%
%ADD21R,0.600000X1.200000*%
%ADD22R,2.150000X3.700000*%
%ADD23R,1.800000X1.600000*%
%ADD24R,0.800000X0.900000*%
%ADD25R,1.500000X1.500000*%
%ADD26R,2.200000X1.450000*%
%ADD27R,1.050000X1.820000*%
%ADD28R,1.820000X1.050000*%
%ADD29R,1.370000X1.120000*%
%ADD30P,1.73204X8X22.5*%
%ADD31C,0.300000*%
%ADD32C,0.756400*%
%ADD33C,1.000000*%
G36*
X380694Y9248D02*
X380499Y9209D01*
X10659Y10133D01*
X10480Y10167D01*
X10312Y10274D01*
X10200Y10438D01*
X10160Y10633D01*
X10160Y889340D01*
X10194Y889520D01*
X10301Y889688D01*
X10465Y889800D01*
X10660Y889840D01*
X89500Y889840D01*
X89680Y889806D01*
X89848Y889699D01*
X89960Y889535D01*
X90000Y889340D01*
X90000Y755048D01*
X90008Y755006D01*
X90036Y754964D01*
X130854Y714146D01*
X130960Y713988D01*
X131000Y713793D01*
X131000Y672273D01*
X130913Y671991D01*
X130770Y671852D01*
X107063Y656612D01*
X107004Y656542D01*
X107000Y656521D01*
X107000Y634167D01*
X106972Y634003D01*
X106870Y633831D01*
X78028Y602031D01*
X78011Y602004D01*
X78000Y601950D01*
X78000Y572331D01*
X77967Y572151D01*
X77860Y571983D01*
X77696Y571871D01*
X42042Y556696D01*
X42010Y556675D01*
X42009Y556674D01*
X42000Y556628D01*
X42000Y417046D01*
X42007Y417009D01*
X42050Y417000D01*
X150500Y417000D01*
X150680Y416966D01*
X150848Y416859D01*
X150960Y416695D01*
X151000Y416500D01*
X151000Y313500D01*
X150966Y313320D01*
X150859Y313152D01*
X150695Y313040D01*
X150500Y313000D01*
X42046Y313000D01*
X42009Y312993D01*
X42000Y312950D01*
X42000Y249046D01*
X42007Y249009D01*
X42050Y249000D01*
X143500Y249000D01*
X143680Y248966D01*
X143848Y248859D01*
X143960Y248695D01*
X144000Y248500D01*
X144000Y180500D01*
X143966Y180320D01*
X143859Y180152D01*
X143695Y180040D01*
X143500Y180000D01*
X42046Y180000D01*
X42009Y179993D01*
X42000Y179950D01*
X42000Y99046D01*
X42007Y99009D01*
X42050Y99000D01*
X147500Y99000D01*
X147680Y98966D01*
X147848Y98859D01*
X147960Y98695D01*
X148000Y98500D01*
X147983Y33046D01*
X147990Y33009D01*
X148034Y33000D01*
X355954Y33000D01*
X355991Y33007D01*
X356000Y33050D01*
X356000Y78500D01*
X356034Y78680D01*
X356141Y78848D01*
X356305Y78960D01*
X356500Y79000D01*
X380500Y79000D01*
X380680Y78966D01*
X380848Y78859D01*
X380960Y78695D01*
X381000Y78500D01*
X381000Y9709D01*
X380966Y9527D01*
X380858Y9360D01*
X380694Y9248D01*
G37*
%LPC*%
G36*
X62500Y758500D02*
X69500Y758500D01*
X69500Y787500D01*
X62500Y787500D01*
X62500Y758500D01*
G37*
G36*
X79500Y721500D02*
X108500Y721500D01*
X108500Y728500D01*
X79500Y728500D01*
X79500Y721500D01*
G37*
%LPD*%
G36*
X896346Y821119D02*
X895761Y821000D01*
X70500Y821000D01*
X69959Y821101D01*
X69456Y821423D01*
X69119Y821915D01*
X69000Y822500D01*
X69000Y888340D01*
X69101Y888881D01*
X69423Y889384D01*
X69915Y889721D01*
X70500Y889840D01*
X788340Y889840D01*
X788881Y889739D01*
X789384Y889417D01*
X789721Y888925D01*
X789840Y888340D01*
X789840Y847979D01*
X791387Y844245D01*
X794245Y841387D01*
X797979Y839840D01*
X852021Y839840D01*
X855755Y841387D01*
X858613Y844245D01*
X860160Y847979D01*
X860160Y888455D01*
X860256Y888982D01*
X860572Y889488D01*
X861061Y889830D01*
X861645Y889955D01*
X939312Y890724D01*
X939869Y890622D01*
X940372Y890300D01*
X940709Y889807D01*
X940827Y889222D01*
X940753Y822498D01*
X940652Y821959D01*
X940330Y821456D01*
X939838Y821119D01*
X939253Y821000D01*
X904239Y821000D01*
X903552Y821167D01*
X903086Y821540D01*
X902803Y822066D01*
X902747Y822660D01*
X902928Y823229D01*
X903316Y823683D01*
X903850Y823949D01*
X910097Y825623D01*
X916063Y829067D01*
X920933Y833937D01*
X924377Y839903D01*
X926160Y846556D01*
X926160Y853444D01*
X924377Y860097D01*
X920933Y866063D01*
X916063Y870933D01*
X910097Y874377D01*
X903444Y876160D01*
X896556Y876160D01*
X889903Y874377D01*
X883937Y870933D01*
X879067Y866063D01*
X875623Y860097D01*
X873840Y853444D01*
X873840Y846556D01*
X875623Y839903D01*
X879067Y833937D01*
X883937Y829067D01*
X889903Y825623D01*
X896150Y823949D01*
X896770Y823610D01*
X897123Y823129D01*
X897261Y822548D01*
X897161Y821959D01*
X896839Y821456D01*
X896346Y821119D01*
G37*
G36*
X193988Y419040D02*
X193793Y419000D01*
X45500Y419000D01*
X45320Y419034D01*
X45152Y419141D01*
X45040Y419305D01*
X45000Y419500D01*
X45000Y554679D01*
X45029Y554846D01*
X45131Y555016D01*
X45292Y555134D01*
X79961Y570982D01*
X79989Y571001D01*
X79991Y571004D01*
X80000Y571050D01*
X80000Y600807D01*
X80028Y600972D01*
X80130Y601143D01*
X108972Y632943D01*
X108989Y632970D01*
X109000Y633025D01*
X109000Y655717D01*
X109013Y655830D01*
X109096Y656011D01*
X109243Y656146D01*
X132975Y670385D01*
X132980Y670389D01*
X132991Y670404D01*
X133000Y670450D01*
X133000Y701500D01*
X133034Y701680D01*
X133141Y701848D01*
X133305Y701960D01*
X133500Y702000D01*
X210500Y702000D01*
X210680Y701966D01*
X210848Y701859D01*
X210960Y701695D01*
X211000Y701500D01*
X211000Y670046D01*
X211007Y670009D01*
X211050Y670000D01*
X266500Y670000D01*
X266680Y669966D01*
X266848Y669859D01*
X266960Y669695D01*
X267000Y669500D01*
X267000Y492207D01*
X266963Y492019D01*
X266854Y491854D01*
X194146Y419146D01*
X193988Y419040D01*
G37*
%LPC*%
G36*
X184713Y495976D02*
X191287Y495976D01*
X197360Y498492D01*
X202008Y503140D01*
X204524Y509213D01*
X204524Y515787D01*
X202008Y521860D01*
X197360Y526508D01*
X191287Y529024D01*
X184713Y529024D01*
X178640Y526508D01*
X173992Y521860D01*
X171476Y515787D01*
X171476Y509213D01*
X173992Y503140D01*
X178640Y498492D01*
X184713Y495976D01*
G37*
%LPD*%
G36*
X225988Y313040D02*
X225793Y313000D01*
X156500Y313000D01*
X156320Y313034D01*
X156152Y313141D01*
X156040Y313305D01*
X156000Y313500D01*
X156000Y376793D01*
X156037Y376981D01*
X156146Y377146D01*
X268966Y489966D01*
X268990Y490002D01*
X269000Y490050D01*
X269000Y669500D01*
X269034Y669680D01*
X269141Y669848D01*
X269305Y669960D01*
X269500Y670000D01*
X309954Y670000D01*
X309991Y670007D01*
X310000Y670050D01*
X310000Y792500D01*
X310034Y792680D01*
X310141Y792848D01*
X310305Y792960D01*
X310500Y793000D01*
X409500Y793000D01*
X409680Y792966D01*
X409848Y792859D01*
X409960Y792695D01*
X410000Y792500D01*
X410000Y718500D01*
X409966Y718320D01*
X409859Y718152D01*
X409695Y718040D01*
X409500Y718000D01*
X351046Y718000D01*
X351009Y717993D01*
X351000Y717950D01*
X351000Y617207D01*
X350963Y617019D01*
X350854Y616854D01*
X310034Y576034D01*
X310010Y575998D01*
X310000Y575950D01*
X310000Y474207D01*
X309963Y474019D01*
X309854Y473854D01*
X264034Y428034D01*
X264010Y427998D01*
X264000Y427950D01*
X264000Y351207D01*
X263963Y351019D01*
X263854Y350854D01*
X226146Y313146D01*
X225988Y313040D01*
G37*
G36*
X306695Y672040D02*
X306500Y672000D01*
X213500Y672000D01*
X213320Y672034D01*
X213152Y672141D01*
X213040Y672305D01*
X213000Y672500D01*
X213000Y703954D01*
X212993Y703991D01*
X212950Y704000D01*
X146207Y704000D01*
X146019Y704037D01*
X145854Y704146D01*
X95146Y754854D01*
X95040Y755012D01*
X95000Y755207D01*
X95000Y818500D01*
X95034Y818680D01*
X95141Y818848D01*
X95305Y818960D01*
X95500Y819000D01*
X191495Y819000D01*
X191682Y818963D01*
X191848Y818854D01*
X196055Y814647D01*
X203945Y814647D01*
X208152Y818854D01*
X208310Y818960D01*
X208505Y819000D01*
X575500Y819000D01*
X575680Y818966D01*
X575848Y818859D01*
X575960Y818695D01*
X576000Y818500D01*
X576000Y793500D01*
X575966Y793320D01*
X575859Y793152D01*
X575695Y793040D01*
X575500Y793000D01*
X483500Y793000D01*
X483320Y793034D01*
X483152Y793141D01*
X483040Y793305D01*
X483000Y793500D01*
X483000Y794954D01*
X482993Y794991D01*
X482950Y795000D01*
X307046Y795000D01*
X307009Y794993D01*
X307000Y794950D01*
X307000Y672500D01*
X306966Y672320D01*
X306859Y672152D01*
X306695Y672040D01*
G37*
%LPC*%
G36*
X196556Y753840D02*
X203444Y753840D01*
X210097Y755623D01*
X216063Y759067D01*
X220933Y763937D01*
X224377Y769903D01*
X226160Y776556D01*
X226160Y783444D01*
X224377Y790097D01*
X220933Y796063D01*
X216063Y800933D01*
X210097Y804377D01*
X203444Y806160D01*
X196556Y806160D01*
X189903Y804377D01*
X183937Y800933D01*
X179067Y796063D01*
X175623Y790097D01*
X173840Y783444D01*
X173840Y776556D01*
X175623Y769903D01*
X179067Y763937D01*
X183937Y759067D01*
X189903Y755623D01*
X196556Y753840D01*
G37*
G36*
X120500Y758500D02*
X127500Y758500D01*
X127500Y787500D01*
X120500Y787500D01*
X120500Y758500D01*
G37*
%LPD*%
G36*
X266988Y103040D02*
X266793Y103000D01*
X45500Y103000D01*
X45320Y103034D01*
X45152Y103141D01*
X45040Y103305D01*
X45000Y103500D01*
X45000Y175500D01*
X45034Y175680D01*
X45141Y175848D01*
X45305Y175960D01*
X45500Y176000D01*
X232952Y176000D01*
X232994Y176008D01*
X233036Y176036D01*
X378854Y321854D01*
X379012Y321960D01*
X379207Y322000D01*
X414500Y322000D01*
X414680Y321966D01*
X414848Y321859D01*
X414960Y321695D01*
X415000Y321500D01*
X415000Y238500D01*
X414966Y238320D01*
X414859Y238152D01*
X414695Y238040D01*
X414500Y238000D01*
X354046Y238000D01*
X354009Y237993D01*
X354000Y237950D01*
X354000Y190207D01*
X353963Y190019D01*
X353854Y189854D01*
X267146Y103146D01*
X266988Y103040D01*
G37*
G36*
X230988Y254040D02*
X230793Y254000D01*
X44500Y254000D01*
X44320Y254034D01*
X44152Y254141D01*
X44040Y254305D01*
X44000Y254500D01*
X44000Y308500D01*
X44034Y308680D01*
X44141Y308848D01*
X44305Y308960D01*
X44500Y309000D01*
X227952Y309000D01*
X227994Y309008D01*
X228036Y309036D01*
X267966Y348966D01*
X267990Y349002D01*
X268000Y349050D01*
X268000Y428793D01*
X268037Y428981D01*
X268146Y429146D01*
X311966Y472966D01*
X311990Y473002D01*
X312000Y473050D01*
X312000Y574793D01*
X312037Y574981D01*
X312146Y575146D01*
X369854Y632854D01*
X370012Y632960D01*
X370207Y633000D01*
X410500Y633000D01*
X410680Y632966D01*
X410848Y632859D01*
X410960Y632695D01*
X411000Y632500D01*
X411000Y559500D01*
X410966Y559320D01*
X410859Y559152D01*
X410695Y559040D01*
X410500Y559000D01*
X353046Y559000D01*
X353009Y558993D01*
X353000Y558950D01*
X353000Y457207D01*
X352963Y457019D01*
X352854Y456854D01*
X309034Y413034D01*
X309010Y412998D01*
X309000Y412950D01*
X309000Y332207D01*
X308963Y332019D01*
X308854Y331854D01*
X231146Y254146D01*
X230988Y254040D01*
G37*
G36*
X230988Y180040D02*
X230793Y180000D01*
X148500Y180000D01*
X148320Y180034D01*
X148152Y180141D01*
X148040Y180305D01*
X148000Y180500D01*
X148000Y248500D01*
X148034Y248680D01*
X148141Y248848D01*
X148305Y248960D01*
X148500Y249000D01*
X232952Y249000D01*
X232994Y249008D01*
X233036Y249036D01*
X312966Y328966D01*
X312990Y329002D01*
X313000Y329050D01*
X313000Y413793D01*
X313037Y413981D01*
X313146Y414146D01*
X378854Y479854D01*
X379012Y479960D01*
X379207Y480000D01*
X413500Y480000D01*
X413680Y479966D01*
X413848Y479859D01*
X413960Y479695D01*
X414000Y479500D01*
X414000Y397500D01*
X413966Y397320D01*
X413859Y397152D01*
X413695Y397040D01*
X413500Y397000D01*
X357048Y397000D01*
X357006Y396992D01*
X356964Y396964D01*
X355034Y395034D01*
X355010Y394998D01*
X355000Y394950D01*
X355000Y304207D01*
X354963Y304019D01*
X354854Y303854D01*
X231146Y180146D01*
X230988Y180040D01*
G37*
G36*
X353535Y35060D02*
X353238Y35000D01*
X151762Y35000D01*
X151487Y35051D01*
X151232Y35215D01*
X151060Y35465D01*
X151000Y35762D01*
X151000Y98238D01*
X151051Y98513D01*
X151215Y98768D01*
X151465Y98940D01*
X151762Y99000D01*
X269912Y99000D01*
X270017Y99025D01*
X270044Y99044D01*
X335777Y164777D01*
X336018Y164940D01*
X336316Y165000D01*
X415238Y165000D01*
X415513Y164949D01*
X415768Y164785D01*
X415940Y164535D01*
X416000Y164238D01*
X416000Y83762D01*
X415949Y83487D01*
X415785Y83232D01*
X415535Y83060D01*
X415238Y83000D01*
X354052Y83000D01*
X354012Y82994D01*
X354009Y82993D01*
X354000Y82938D01*
X354000Y35762D01*
X353949Y35487D01*
X353785Y35232D01*
X353535Y35060D01*
G37*
G36*
X479695Y178040D02*
X479500Y178000D01*
X449207Y178000D01*
X449019Y178037D01*
X448854Y178146D01*
X431034Y195966D01*
X430998Y195990D01*
X430950Y196000D01*
X409500Y196000D01*
X409320Y196034D01*
X409152Y196141D01*
X409040Y196305D01*
X409000Y196500D01*
X409000Y225793D01*
X409037Y225981D01*
X409146Y226146D01*
X420966Y237966D01*
X420990Y238002D01*
X421000Y238050D01*
X421000Y321500D01*
X421034Y321680D01*
X421141Y321848D01*
X421305Y321960D01*
X421500Y322000D01*
X479500Y322000D01*
X479680Y321966D01*
X479848Y321859D01*
X479960Y321695D01*
X480000Y321500D01*
X480000Y178500D01*
X479966Y178320D01*
X479859Y178152D01*
X479695Y178040D01*
G37*
G36*
X480695Y340040D02*
X480500Y340000D01*
X445207Y340000D01*
X445019Y340037D01*
X444854Y340146D01*
X431034Y353966D01*
X430998Y353990D01*
X430950Y354000D01*
X410500Y354000D01*
X410320Y354034D01*
X410152Y354141D01*
X410040Y354305D01*
X410000Y354500D01*
X410000Y383793D01*
X410037Y383981D01*
X410146Y384146D01*
X421966Y395966D01*
X421990Y396002D01*
X422000Y396050D01*
X422000Y479500D01*
X422034Y479680D01*
X422141Y479848D01*
X422305Y479960D01*
X422500Y480000D01*
X480500Y480000D01*
X480680Y479966D01*
X480848Y479859D01*
X480960Y479695D01*
X481000Y479500D01*
X481000Y340500D01*
X480966Y340320D01*
X480859Y340152D01*
X480695Y340040D01*
G37*
G36*
X477695Y653216D02*
X477500Y653176D01*
X446031Y653176D01*
X445843Y653213D01*
X445678Y653322D01*
X432034Y666966D01*
X431998Y666990D01*
X431950Y667000D01*
X407207Y667000D01*
X407019Y667037D01*
X406854Y667146D01*
X406146Y667854D01*
X406040Y668012D01*
X406000Y668207D01*
X406000Y695793D01*
X406037Y695981D01*
X406146Y696146D01*
X418966Y708966D01*
X418990Y709002D01*
X419000Y709050D01*
X419000Y792500D01*
X419034Y792680D01*
X419141Y792848D01*
X419305Y792960D01*
X419500Y793000D01*
X477500Y793000D01*
X477680Y792966D01*
X477848Y792859D01*
X477960Y792695D01*
X478000Y792500D01*
X478000Y653676D01*
X477966Y653496D01*
X477859Y653328D01*
X477695Y653216D01*
G37*
G36*
X478695Y497040D02*
X478500Y497000D01*
X443207Y497000D01*
X443019Y497037D01*
X442854Y497146D01*
X429034Y510966D01*
X428998Y510990D01*
X428950Y511000D01*
X408207Y511000D01*
X408019Y511037D01*
X407854Y511146D01*
X407146Y511854D01*
X407040Y512012D01*
X407000Y512207D01*
X407000Y539793D01*
X407037Y539981D01*
X407146Y540146D01*
X419966Y552966D01*
X419990Y553002D01*
X420000Y553050D01*
X420000Y632500D01*
X420034Y632680D01*
X420141Y632848D01*
X420305Y632960D01*
X420500Y633000D01*
X478500Y633000D01*
X478680Y632966D01*
X478848Y632859D01*
X478960Y632695D01*
X479000Y632500D01*
X479000Y497500D01*
X478966Y497320D01*
X478859Y497152D01*
X478695Y497040D01*
G37*
G36*
X478695Y24040D02*
X478500Y24000D01*
X446207Y24000D01*
X446019Y24037D01*
X445854Y24146D01*
X433034Y36966D01*
X432998Y36990D01*
X432950Y37000D01*
X416207Y37000D01*
X416019Y37037D01*
X415854Y37146D01*
X409146Y43854D01*
X409040Y44012D01*
X409000Y44207D01*
X409000Y62793D01*
X409037Y62981D01*
X409146Y63146D01*
X422966Y76966D01*
X422990Y77002D01*
X423000Y77050D01*
X423000Y164500D01*
X423034Y164680D01*
X423141Y164848D01*
X423305Y164960D01*
X423500Y165000D01*
X478500Y165000D01*
X478680Y164966D01*
X478848Y164859D01*
X478960Y164695D01*
X479000Y164500D01*
X479000Y24500D01*
X478966Y24320D01*
X478859Y24152D01*
X478695Y24040D01*
G37*
G36*
X618964Y126119D02*
X618379Y126000D01*
X485500Y126000D01*
X484959Y126101D01*
X484456Y126423D01*
X484119Y126915D01*
X484000Y127500D01*
X484000Y166523D01*
X484093Y167042D01*
X484407Y167550D01*
X484894Y167895D01*
X485477Y168023D01*
X547428Y168976D01*
X547451Y168976D01*
X548771Y168976D01*
X548770Y168979D01*
X548837Y168990D01*
X548873Y168998D01*
X548884Y168998D01*
X549008Y169019D01*
X549061Y169061D01*
X555561Y175561D01*
X556036Y175881D01*
X556621Y176000D01*
X640500Y176000D01*
X641041Y175899D01*
X641544Y175577D01*
X641881Y175085D01*
X642000Y174500D01*
X642000Y149621D01*
X641890Y149058D01*
X641561Y148561D01*
X619439Y126439D01*
X618964Y126119D01*
G37*
G36*
X616695Y497040D02*
X616500Y497000D01*
X578187Y497000D01*
X578032Y497025D01*
X577859Y497122D01*
X576470Y498329D01*
X576338Y498511D01*
X576298Y498706D01*
X576298Y527807D01*
X575405Y528700D01*
X549393Y528700D01*
X548500Y527807D01*
X548500Y523715D01*
X548480Y523575D01*
X548388Y523399D01*
X548234Y523273D01*
X548043Y523217D01*
X547845Y523239D01*
X547672Y523337D01*
X538172Y531587D01*
X538040Y531770D01*
X538000Y531965D01*
X538000Y580500D01*
X538034Y580680D01*
X538141Y580848D01*
X538305Y580960D01*
X538500Y581000D01*
X616500Y581000D01*
X616680Y580966D01*
X616848Y580859D01*
X616960Y580695D01*
X617000Y580500D01*
X617000Y497500D01*
X616966Y497320D01*
X616859Y497152D01*
X616695Y497040D01*
G37*
G36*
X615695Y653040D02*
X615500Y653000D01*
X577500Y653000D01*
X577320Y653034D01*
X577152Y653141D01*
X577040Y653305D01*
X577000Y653500D01*
X577000Y686954D01*
X576993Y686991D01*
X576950Y687000D01*
X538500Y687000D01*
X538320Y687034D01*
X538152Y687141D01*
X538040Y687305D01*
X538000Y687500D01*
X538000Y741500D01*
X538034Y741680D01*
X538141Y741848D01*
X538305Y741960D01*
X538500Y742000D01*
X615500Y742000D01*
X615680Y741966D01*
X615848Y741859D01*
X615960Y741695D01*
X616000Y741500D01*
X616000Y653500D01*
X615966Y653320D01*
X615859Y653152D01*
X615695Y653040D01*
G37*
G36*
X618695Y27040D02*
X618500Y27000D01*
X581500Y27000D01*
X581320Y27034D01*
X581152Y27141D01*
X581040Y27305D01*
X581000Y27500D01*
X581000Y55954D01*
X580993Y55991D01*
X580950Y56000D01*
X539500Y56000D01*
X539320Y56034D01*
X539152Y56141D01*
X539040Y56305D01*
X539000Y56500D01*
X539000Y109500D01*
X539034Y109680D01*
X539141Y109848D01*
X539305Y109960D01*
X539500Y110000D01*
X618500Y110000D01*
X618680Y109966D01*
X618848Y109859D01*
X618960Y109695D01*
X619000Y109500D01*
X619000Y27500D01*
X618966Y27320D01*
X618859Y27152D01*
X618695Y27040D01*
G37*
G36*
X535695Y653216D02*
X535500Y653176D01*
X483500Y653176D01*
X483320Y653210D01*
X483152Y653317D01*
X483040Y653481D01*
X483000Y653676D01*
X483000Y754500D01*
X483034Y754680D01*
X483141Y754848D01*
X483305Y754960D01*
X483500Y755000D01*
X535500Y755000D01*
X535680Y754966D01*
X535848Y754859D01*
X535960Y754695D01*
X536000Y754500D01*
X536000Y653676D01*
X535966Y653496D01*
X535859Y653328D01*
X535695Y653216D01*
G37*
G36*
X537695Y178040D02*
X537500Y178000D01*
X485500Y178000D01*
X485320Y178034D01*
X485152Y178141D01*
X485040Y178305D01*
X485000Y178500D01*
X485000Y277500D01*
X485034Y277680D01*
X485141Y277848D01*
X485305Y277960D01*
X485500Y278000D01*
X537500Y278000D01*
X537680Y277966D01*
X537848Y277859D01*
X537960Y277695D01*
X538000Y277500D01*
X538000Y178500D01*
X537966Y178320D01*
X537859Y178152D01*
X537695Y178040D01*
G37*
G36*
X617695Y340040D02*
X617500Y340000D01*
X579500Y340000D01*
X579320Y340034D01*
X579152Y340141D01*
X579040Y340305D01*
X579000Y340500D01*
X579000Y371954D01*
X578993Y371991D01*
X578950Y372000D01*
X540500Y372000D01*
X540320Y372034D01*
X540152Y372141D01*
X540040Y372305D01*
X540000Y372500D01*
X540000Y422500D01*
X540034Y422680D01*
X540141Y422848D01*
X540305Y422960D01*
X540500Y423000D01*
X617500Y423000D01*
X617680Y422966D01*
X617848Y422859D01*
X617960Y422695D01*
X618000Y422500D01*
X618000Y340500D01*
X617966Y340320D01*
X617859Y340152D01*
X617695Y340040D01*
G37*
G36*
X537695Y340040D02*
X537500Y340000D01*
X485500Y340000D01*
X485320Y340034D01*
X485152Y340141D01*
X485040Y340305D01*
X485000Y340500D01*
X485000Y437500D01*
X485034Y437680D01*
X485141Y437848D01*
X485305Y437960D01*
X485500Y438000D01*
X537500Y438000D01*
X537680Y437966D01*
X537848Y437859D01*
X537960Y437695D01*
X538000Y437500D01*
X538000Y340500D01*
X537966Y340320D01*
X537859Y340152D01*
X537695Y340040D01*
G37*
G36*
X535695Y497040D02*
X535500Y497000D01*
X484500Y497000D01*
X484320Y497034D01*
X484152Y497141D01*
X484040Y497305D01*
X484000Y497500D01*
X484000Y594500D01*
X484034Y594680D01*
X484141Y594848D01*
X484305Y594960D01*
X484500Y595000D01*
X535500Y595000D01*
X535680Y594966D01*
X535848Y594859D01*
X535960Y594695D01*
X536000Y594500D01*
X536000Y497500D01*
X535966Y497320D01*
X535859Y497152D01*
X535695Y497040D01*
G37*
G36*
X533970Y21004D02*
X533950Y21000D01*
X484050Y21000D01*
X484032Y21003D01*
X484015Y21014D01*
X484004Y21031D01*
X484000Y21050D01*
X484000Y119950D01*
X484003Y119968D01*
X484014Y119985D01*
X484031Y119996D01*
X484050Y120000D01*
X533950Y120000D01*
X533968Y119997D01*
X533985Y119986D01*
X533996Y119970D01*
X534000Y119950D01*
X534000Y21050D01*
X533997Y21032D01*
X533986Y21015D01*
X533970Y21004D01*
G37*
G36*
X617695Y195040D02*
X617500Y195000D01*
X579500Y195000D01*
X579320Y195034D01*
X579152Y195141D01*
X579040Y195305D01*
X579000Y195500D01*
X579000Y210954D01*
X578993Y210991D01*
X578950Y211000D01*
X541500Y211000D01*
X541320Y211034D01*
X541152Y211141D01*
X541040Y211305D01*
X541000Y211500D01*
X541000Y265500D01*
X541034Y265680D01*
X541141Y265848D01*
X541305Y265960D01*
X541500Y266000D01*
X617500Y266000D01*
X617680Y265966D01*
X617848Y265859D01*
X617960Y265695D01*
X618000Y265500D01*
X618000Y195500D01*
X617966Y195320D01*
X617859Y195152D01*
X617695Y195040D01*
G37*
G36*
X574085Y598119D02*
X573500Y598000D01*
X484500Y598000D01*
X483959Y598101D01*
X483456Y598423D01*
X483119Y598915D01*
X483000Y599500D01*
X483000Y640500D01*
X483101Y641041D01*
X483423Y641544D01*
X483915Y641881D01*
X484500Y642000D01*
X573500Y642000D01*
X574041Y641899D01*
X574544Y641577D01*
X574881Y641085D01*
X575000Y640500D01*
X575000Y599500D01*
X574899Y598959D01*
X574577Y598456D01*
X574085Y598119D01*
G37*
G36*
X574085Y284119D02*
X573500Y284000D01*
X486500Y284000D01*
X485959Y284101D01*
X485456Y284423D01*
X485119Y284915D01*
X485000Y285500D01*
X485000Y324500D01*
X485101Y325041D01*
X485423Y325544D01*
X485915Y325881D01*
X486500Y326000D01*
X573500Y326000D01*
X574041Y325899D01*
X574544Y325577D01*
X574881Y325085D01*
X575000Y324500D01*
X575000Y285500D01*
X574899Y284959D01*
X574577Y284456D01*
X574085Y284119D01*
G37*
G36*
X574085Y441119D02*
X573500Y441000D01*
X486500Y441000D01*
X485959Y441101D01*
X485456Y441423D01*
X485119Y441915D01*
X485000Y442500D01*
X485000Y481500D01*
X485101Y482041D01*
X485423Y482544D01*
X485915Y482881D01*
X486500Y483000D01*
X573500Y483000D01*
X574041Y482899D01*
X574544Y482577D01*
X574881Y482085D01*
X575000Y481500D01*
X575000Y442500D01*
X574899Y441959D01*
X574577Y441456D01*
X574085Y441119D01*
G37*
G36*
X575085Y759119D02*
X574500Y759000D01*
X484500Y759000D01*
X483959Y759101D01*
X483456Y759423D01*
X483119Y759915D01*
X483000Y760500D01*
X483000Y791500D01*
X483101Y792041D01*
X483423Y792544D01*
X483915Y792881D01*
X484500Y793000D01*
X574500Y793000D01*
X575041Y792899D01*
X575544Y792577D01*
X575881Y792085D01*
X576000Y791500D01*
X576000Y760500D01*
X575899Y759959D01*
X575577Y759456D01*
X575085Y759119D01*
G37*
G36*
X377085Y639119D02*
X376500Y639000D01*
X354500Y639000D01*
X353959Y639101D01*
X353456Y639423D01*
X353119Y639915D01*
X353000Y640500D01*
X353000Y713500D01*
X353101Y714041D01*
X353423Y714544D01*
X353915Y714881D01*
X354500Y715000D01*
X376500Y715000D01*
X377041Y714899D01*
X377544Y714577D01*
X377881Y714085D01*
X378000Y713500D01*
X378000Y640500D01*
X377899Y639959D01*
X377577Y639456D01*
X377085Y639119D01*
G37*
G36*
X376085Y481119D02*
X375500Y481000D01*
X356500Y481000D01*
X355959Y481101D01*
X355456Y481423D01*
X355119Y481915D01*
X355000Y482500D01*
X355000Y555500D01*
X355101Y556041D01*
X355423Y556544D01*
X355915Y556881D01*
X356500Y557000D01*
X375500Y557000D01*
X376041Y556899D01*
X376544Y556577D01*
X376881Y556085D01*
X377000Y555500D01*
X377000Y482500D01*
X376899Y481959D01*
X376577Y481456D01*
X376085Y481119D01*
G37*
G36*
X379085Y167119D02*
X378500Y167000D01*
X357500Y167000D01*
X356959Y167101D01*
X356456Y167423D01*
X356119Y167915D01*
X356000Y168500D01*
X356000Y233500D01*
X356101Y234041D01*
X356423Y234544D01*
X356915Y234881D01*
X357500Y235000D01*
X378500Y235000D01*
X379041Y234899D01*
X379544Y234577D01*
X379881Y234085D01*
X380000Y233500D01*
X380000Y168500D01*
X379899Y167959D01*
X379577Y167456D01*
X379085Y167119D01*
G37*
G36*
X379085Y324119D02*
X378500Y324000D01*
X358500Y324000D01*
X357959Y324101D01*
X357456Y324423D01*
X357119Y324915D01*
X357000Y325500D01*
X357000Y392500D01*
X357101Y393041D01*
X357423Y393544D01*
X357915Y393881D01*
X358500Y394000D01*
X378500Y394000D01*
X379041Y393899D01*
X379544Y393577D01*
X379881Y393085D01*
X380000Y392500D01*
X380000Y325500D01*
X379899Y324959D01*
X379577Y324456D01*
X379085Y324119D01*
G37*
D10*
X909500Y454024D02*
X909500Y471024D01*
X884100Y471024D02*
X884100Y454024D01*
X858700Y454024D02*
X858700Y471024D01*
X833300Y471024D02*
X833300Y454024D01*
X807900Y454024D02*
X807900Y471024D01*
X782500Y471024D02*
X782500Y454024D01*
X757100Y454024D02*
X757100Y471024D01*
X757100Y301624D02*
X757100Y284624D01*
X782500Y284624D02*
X782500Y301624D01*
X807900Y301624D02*
X807900Y284624D01*
X833300Y284624D02*
X833300Y301624D01*
X858700Y301624D02*
X858700Y284624D01*
X884100Y284624D02*
X884100Y301624D01*
X909500Y301624D02*
X909500Y284624D01*
D11*
X661000Y552000D03*
X633000Y552000D03*
X660000Y78000D03*
X632000Y78000D03*
X662000Y389000D03*
X634000Y389000D03*
X661000Y242000D03*
X633000Y242000D03*
X394269Y530000D03*
X422269Y530000D03*
X422745Y494000D03*
X394745Y494000D03*
X426476Y335524D03*
X398476Y335524D03*
X399000Y369000D03*
X427000Y369000D03*
X396000Y52000D03*
X424000Y52000D03*
G36*
X415633Y30054D02*
X431629Y29775D01*
X431315Y11778D01*
X415319Y12057D01*
X415633Y30054D01*
G37*
G36*
X387637Y30542D02*
X403633Y30263D01*
X403319Y12266D01*
X387323Y12545D01*
X387637Y30542D01*
G37*
X424000Y179524D03*
X396000Y179524D03*
X395000Y213000D03*
X423000Y213000D03*
D12*
X563000Y550950D03*
X563000Y563650D03*
X563000Y576350D03*
X563000Y589050D03*
X509000Y589050D03*
X509000Y576350D03*
X509000Y563650D03*
X509000Y550950D03*
X566000Y76950D03*
X566000Y89650D03*
X566000Y102350D03*
X566000Y115050D03*
X512000Y115050D03*
X512000Y102350D03*
X512000Y89650D03*
X512000Y76950D03*
X566000Y390950D03*
X566000Y403650D03*
X566000Y416350D03*
X566000Y429050D03*
X512000Y429050D03*
X512000Y416350D03*
X512000Y403650D03*
X512000Y390950D03*
X566000Y233950D03*
X566000Y246650D03*
X566000Y259350D03*
X566000Y272050D03*
X512000Y272050D03*
X512000Y259350D03*
X512000Y246650D03*
X512000Y233950D03*
D13*
X396120Y429226D03*
X396120Y416526D03*
X396120Y403826D03*
X396120Y391126D03*
X449880Y391126D03*
X449880Y403826D03*
X449880Y416526D03*
X449880Y429226D03*
X395120Y590050D03*
X395120Y577350D03*
X395120Y564650D03*
X395120Y551950D03*
X448880Y551950D03*
X448880Y564650D03*
X448880Y577350D03*
X448880Y590050D03*
X396120Y115050D03*
X396120Y102350D03*
X396120Y89650D03*
X396120Y76950D03*
X449880Y76950D03*
X449880Y89650D03*
X449880Y102350D03*
X449880Y115050D03*
X396120Y271050D03*
X396120Y258350D03*
X396120Y245650D03*
X396120Y232950D03*
X449880Y232950D03*
X449880Y245650D03*
X449880Y258350D03*
X449880Y271050D03*
D11*
X663000Y707000D03*
X635000Y707000D03*
X392000Y687000D03*
X420000Y687000D03*
X421000Y652000D03*
X393000Y652000D03*
D12*
X563000Y709950D03*
X563000Y722650D03*
X563000Y735350D03*
X563000Y748050D03*
X509000Y748050D03*
X509000Y735350D03*
X509000Y722650D03*
X509000Y709950D03*
D13*
X397120Y750050D03*
X397120Y737350D03*
X397120Y724650D03*
X397120Y711950D03*
X450880Y711950D03*
X450880Y724650D03*
X450880Y737350D03*
X450880Y750050D03*
D14*
X63000Y587500D03*
D15*
X188000Y512500D03*
X63000Y437500D03*
X188000Y362500D03*
X63000Y287500D03*
X188000Y212500D03*
X63000Y137500D03*
X188000Y62500D03*
D16*
X66000Y764000D02*
X66000Y782000D01*
X124000Y782000D02*
X124000Y764000D01*
X103000Y725000D02*
X85000Y725000D01*
D17*
X919586Y147216D03*
X919586Y177216D03*
X919586Y207216D03*
D18*
X924086Y114716D02*
X915086Y114716D01*
X915086Y239716D02*
X924086Y239716D01*
D19*
X447000Y145524D03*
X393250Y145524D03*
X500750Y145524D03*
X446000Y301000D03*
X392250Y301000D03*
X499750Y301000D03*
X448000Y459476D03*
X394250Y459476D03*
X501750Y459476D03*
X442000Y618000D03*
X388250Y618000D03*
X495750Y618000D03*
D20*
G36*
X429599Y763022D02*
X429652Y793021D01*
X454401Y792978D01*
X454348Y762979D01*
X429599Y763022D01*
G37*
G36*
X375849Y763116D02*
X375902Y793115D01*
X400651Y793072D01*
X400598Y763073D01*
X375849Y763116D01*
G37*
G36*
X483349Y762928D02*
X483402Y792927D01*
X508151Y792884D01*
X508098Y762885D01*
X483349Y762928D01*
G37*
D19*
X171956Y687173D03*
X225706Y687173D03*
X118206Y687173D03*
X512000Y39160D03*
X458250Y39160D03*
X565750Y39160D03*
X508649Y512176D03*
X454899Y512176D03*
X562399Y512176D03*
X510000Y193000D03*
X456250Y193000D03*
X563750Y193000D03*
X508000Y668176D03*
X454250Y668176D03*
X561750Y668176D03*
X511000Y355000D03*
X457250Y355000D03*
X564750Y355000D03*
D21*
X832500Y589500D03*
X842000Y589500D03*
X851500Y589500D03*
X851500Y614500D03*
X842000Y614500D03*
X832500Y614500D03*
D11*
X880000Y562326D03*
X852000Y562326D03*
X825000Y561850D03*
X797000Y561850D03*
D22*
X278594Y785340D03*
X278594Y853340D03*
D23*
X364000Y701000D03*
X364000Y729000D03*
X365476Y542000D03*
X365476Y570000D03*
X368000Y380000D03*
X368000Y408000D03*
X368000Y223000D03*
X368000Y251000D03*
X369000Y66000D03*
X369000Y94000D03*
D11*
X809000Y120000D03*
X837000Y120000D03*
X636000Y512000D03*
X664000Y512000D03*
X697000Y552000D03*
X725000Y552000D03*
X634000Y590000D03*
X662000Y590000D03*
D24*
X696500Y590000D03*
X719500Y590000D03*
D25*
X694500Y513000D03*
X729500Y513000D03*
D11*
X635000Y666000D03*
X663000Y666000D03*
X699000Y706000D03*
X727000Y706000D03*
X635000Y745000D03*
X663000Y745000D03*
D24*
X698500Y744000D03*
X721500Y744000D03*
D25*
X693500Y667000D03*
X728500Y667000D03*
D11*
X632000Y37000D03*
X660000Y37000D03*
X694000Y78000D03*
X722000Y78000D03*
X632000Y113000D03*
X660000Y113000D03*
D24*
X695500Y113000D03*
X718500Y113000D03*
D25*
X690500Y37000D03*
X725500Y37000D03*
D11*
X633000Y200000D03*
X661000Y200000D03*
X687000Y242000D03*
X715000Y242000D03*
X633000Y279000D03*
X661000Y279000D03*
D24*
X683500Y279000D03*
X706500Y279000D03*
D25*
X687500Y200000D03*
X722500Y200000D03*
D11*
X634000Y351000D03*
X662000Y351000D03*
D23*
X690000Y420500D03*
X690000Y392500D03*
D11*
X635000Y428000D03*
X663000Y428000D03*
D24*
X663500Y459000D03*
X686500Y459000D03*
D25*
X687500Y313000D03*
X687500Y348000D03*
X806500Y90000D03*
X841500Y90000D03*
D26*
X777000Y612000D03*
X777000Y592000D03*
D27*
X879900Y534000D03*
X852100Y534000D03*
D28*
X808000Y586100D03*
X808000Y613900D03*
X879690Y588376D03*
X879690Y616176D03*
D27*
X879590Y504776D03*
X851790Y504776D03*
D29*
X823240Y505000D03*
X823240Y535000D03*
D11*
X99000Y652000D03*
X127000Y652000D03*
D30*
X341000Y47000D03*
X340000Y220000D03*
X340000Y370000D03*
X338475Y530000D03*
X340000Y680000D03*
X200000Y650000D03*
X200000Y740000D03*
X200000Y824172D03*
D31*
X777000Y583000D02*
X797000Y563000D01*
X777000Y583000D02*
X777000Y592000D01*
X797000Y546000D02*
X808000Y535000D01*
X797000Y546000D02*
X797000Y561850D01*
X808000Y535000D02*
X823240Y535000D01*
X851100Y535000D02*
X852100Y534000D01*
X851100Y535000D02*
X823240Y535000D01*
X797000Y561850D02*
X797000Y563000D01*
X797000Y561850D01*
X898586Y147216D02*
X919586Y147216D01*
X898586Y147216D02*
X841500Y90131D01*
X841500Y90000D01*
X880000Y588066D02*
X879690Y588376D01*
X880000Y588066D02*
X880000Y562326D01*
X879690Y588376D02*
X868624Y588376D01*
X855000Y602000D01*
X845000Y602000D01*
X842000Y599000D01*
X842000Y589500D01*
X880000Y562326D02*
X880000Y534100D01*
X879900Y534000D01*
X879900Y505086D01*
X879590Y504776D01*
D32*
X362000Y15000D03*
X374000Y15000D03*
X362000Y27000D03*
X374000Y27000D03*
X362000Y39000D03*
X374000Y39000D03*
X362000Y173000D03*
X374000Y173000D03*
X362000Y185000D03*
X374000Y185000D03*
X362000Y197000D03*
X374000Y197000D03*
X363000Y330000D03*
X375000Y330000D03*
X363000Y342000D03*
X375000Y342000D03*
X363000Y354000D03*
X375000Y354000D03*
X361000Y487000D03*
X373000Y487000D03*
X361000Y499000D03*
X373000Y499000D03*
X361000Y511000D03*
X373000Y511000D03*
X371000Y681000D03*
X371000Y669000D03*
X359000Y669000D03*
X371000Y657000D03*
X359000Y657000D03*
X371000Y645000D03*
X359000Y645000D03*
X79000Y883000D03*
X67000Y883000D03*
X55000Y883000D03*
X43000Y883000D03*
X31000Y883000D03*
X19000Y883000D03*
X79000Y871000D03*
X67000Y871000D03*
X55000Y871000D03*
X43000Y871000D03*
X31000Y871000D03*
X19000Y871000D03*
X79000Y859000D03*
X67000Y859000D03*
X55000Y859000D03*
X43000Y859000D03*
X31000Y859000D03*
X19000Y859000D03*
X55000Y847000D03*
X43000Y847000D03*
X31000Y847000D03*
X19000Y847000D03*
X79000Y835000D03*
X55000Y835000D03*
X43000Y835000D03*
X31000Y835000D03*
X19000Y835000D03*
X79000Y823000D03*
X55000Y823000D03*
X43000Y823000D03*
X31000Y823000D03*
X19000Y823000D03*
X79000Y811000D03*
X55000Y811000D03*
X43000Y811000D03*
X31000Y811000D03*
X19000Y811000D03*
X79000Y799000D03*
X43000Y799000D03*
X31000Y799000D03*
X19000Y799000D03*
X43000Y787000D03*
X31000Y787000D03*
X91000Y31000D03*
X79000Y31000D03*
X67000Y31000D03*
X55000Y31000D03*
X43000Y31000D03*
X31000Y31000D03*
X19000Y31000D03*
X331000Y19000D03*
X319000Y19000D03*
X307000Y19000D03*
X295000Y19000D03*
X283000Y19000D03*
X271000Y19000D03*
X259000Y19000D03*
X247000Y19000D03*
X235000Y19000D03*
X223000Y19000D03*
X211000Y19000D03*
X199000Y19000D03*
X187000Y19000D03*
X175000Y19000D03*
X163000Y19000D03*
X151000Y19000D03*
X139000Y19000D03*
X127000Y19000D03*
X115000Y19000D03*
X103000Y19000D03*
X91000Y19000D03*
X79000Y19000D03*
X67000Y19000D03*
X55000Y19000D03*
X43000Y19000D03*
X31000Y19000D03*
X19000Y19000D03*
X103000Y31000D03*
X115000Y31000D03*
X127000Y31000D03*
X139000Y31000D03*
X19000Y43000D03*
X31000Y43000D03*
X43000Y43000D03*
X55000Y43000D03*
X67000Y43000D03*
X79000Y43000D03*
X91000Y43000D03*
X103000Y43000D03*
X115000Y43000D03*
X127000Y43000D03*
X139000Y43000D03*
X19000Y55000D03*
X31000Y55000D03*
X43000Y55000D03*
X55000Y55000D03*
X67000Y55000D03*
X79000Y55000D03*
X91000Y55000D03*
X103000Y55000D03*
X115000Y55000D03*
X127000Y55000D03*
X139000Y55000D03*
X19000Y67000D03*
X31000Y67000D03*
X43000Y67000D03*
X55000Y67000D03*
X67000Y67000D03*
X79000Y67000D03*
X91000Y67000D03*
X103000Y67000D03*
X115000Y67000D03*
X127000Y67000D03*
X139000Y67000D03*
X19000Y79000D03*
X31000Y79000D03*
X43000Y79000D03*
X55000Y79000D03*
X67000Y79000D03*
X79000Y79000D03*
X91000Y79000D03*
X103000Y79000D03*
X115000Y79000D03*
X127000Y79000D03*
X139000Y79000D03*
X19000Y91000D03*
X31000Y91000D03*
X43000Y91000D03*
X55000Y91000D03*
X67000Y91000D03*
X79000Y91000D03*
X91000Y91000D03*
X103000Y91000D03*
X115000Y91000D03*
X127000Y91000D03*
X139000Y91000D03*
X19000Y103000D03*
X31000Y103000D03*
X19000Y115000D03*
X31000Y115000D03*
X19000Y127000D03*
X31000Y127000D03*
X19000Y139000D03*
X31000Y139000D03*
X19000Y151000D03*
X31000Y151000D03*
X19000Y163000D03*
X31000Y163000D03*
X19000Y175000D03*
X31000Y175000D03*
X19000Y187000D03*
X31000Y187000D03*
X43000Y187000D03*
X55000Y187000D03*
X67000Y187000D03*
X79000Y187000D03*
X91000Y187000D03*
X103000Y187000D03*
X115000Y187000D03*
X127000Y187000D03*
X139000Y187000D03*
X19000Y199000D03*
X31000Y199000D03*
X43000Y199000D03*
X55000Y199000D03*
X67000Y199000D03*
X79000Y199000D03*
X91000Y199000D03*
X103000Y199000D03*
X115000Y199000D03*
X127000Y199000D03*
X139000Y199000D03*
X19000Y211000D03*
X31000Y211000D03*
X43000Y211000D03*
X55000Y211000D03*
X67000Y211000D03*
X79000Y211000D03*
X91000Y211000D03*
X103000Y211000D03*
X115000Y211000D03*
X127000Y211000D03*
X139000Y211000D03*
X19000Y223000D03*
X31000Y223000D03*
X43000Y223000D03*
X55000Y223000D03*
X67000Y223000D03*
X79000Y223000D03*
X91000Y223000D03*
X103000Y223000D03*
X115000Y223000D03*
X127000Y223000D03*
X139000Y223000D03*
X19000Y235000D03*
X31000Y235000D03*
X43000Y235000D03*
X55000Y235000D03*
X67000Y235000D03*
X79000Y235000D03*
X91000Y235000D03*
X103000Y235000D03*
X115000Y235000D03*
X127000Y235000D03*
X139000Y235000D03*
X19000Y247000D03*
X31000Y247000D03*
X19000Y259000D03*
X31000Y259000D03*
X19000Y271000D03*
X31000Y271000D03*
X19000Y283000D03*
X31000Y283000D03*
X19000Y295000D03*
X31000Y295000D03*
X19000Y307000D03*
X31000Y307000D03*
X19000Y319000D03*
X31000Y319000D03*
X43000Y319000D03*
X55000Y319000D03*
X67000Y319000D03*
X79000Y319000D03*
X91000Y319000D03*
X103000Y319000D03*
X115000Y319000D03*
X127000Y319000D03*
X139000Y319000D03*
X19000Y331000D03*
X31000Y331000D03*
X43000Y331000D03*
X55000Y331000D03*
X67000Y331000D03*
X79000Y331000D03*
X91000Y331000D03*
X103000Y331000D03*
X115000Y331000D03*
X127000Y331000D03*
X139000Y331000D03*
X19000Y343000D03*
X31000Y343000D03*
X43000Y343000D03*
X55000Y343000D03*
X67000Y343000D03*
X79000Y343000D03*
X91000Y343000D03*
X103000Y343000D03*
X115000Y343000D03*
X127000Y343000D03*
X139000Y343000D03*
X19000Y355000D03*
X31000Y355000D03*
X43000Y355000D03*
X55000Y355000D03*
X67000Y355000D03*
X79000Y355000D03*
X91000Y355000D03*
X103000Y355000D03*
X115000Y355000D03*
X127000Y355000D03*
X139000Y355000D03*
X19000Y367000D03*
X31000Y367000D03*
X43000Y367000D03*
X55000Y367000D03*
X67000Y367000D03*
X79000Y367000D03*
X91000Y367000D03*
X103000Y367000D03*
X115000Y367000D03*
X127000Y367000D03*
X139000Y367000D03*
X19000Y379000D03*
X31000Y379000D03*
X43000Y379000D03*
X55000Y379000D03*
X67000Y379000D03*
X79000Y379000D03*
X91000Y379000D03*
X103000Y379000D03*
X115000Y379000D03*
X127000Y379000D03*
X139000Y379000D03*
X19000Y391000D03*
X31000Y391000D03*
X43000Y391000D03*
X55000Y391000D03*
X67000Y391000D03*
X79000Y391000D03*
X91000Y391000D03*
X103000Y391000D03*
X115000Y391000D03*
X127000Y391000D03*
X139000Y391000D03*
X19000Y403000D03*
X31000Y403000D03*
X43000Y403000D03*
X55000Y403000D03*
X67000Y403000D03*
X79000Y403000D03*
X91000Y403000D03*
X103000Y403000D03*
X115000Y403000D03*
X127000Y403000D03*
X139000Y403000D03*
X19000Y415000D03*
X31000Y415000D03*
X19000Y427000D03*
X31000Y427000D03*
X19000Y439000D03*
X31000Y439000D03*
X19000Y451000D03*
X31000Y451000D03*
X19000Y463000D03*
X31000Y463000D03*
X19000Y475000D03*
X31000Y475000D03*
X19000Y487000D03*
X31000Y487000D03*
X19000Y499000D03*
X31000Y499000D03*
X19000Y511000D03*
X31000Y511000D03*
X19000Y523000D03*
X31000Y523000D03*
X19000Y535000D03*
X31000Y535000D03*
X19000Y547000D03*
X31000Y547000D03*
X19000Y559000D03*
X31000Y559000D03*
X19000Y571000D03*
X31000Y571000D03*
X19000Y583000D03*
X31000Y583000D03*
X19000Y595000D03*
X31000Y595000D03*
X19000Y607000D03*
X31000Y607000D03*
X19000Y619000D03*
X31000Y619000D03*
X43000Y619000D03*
X55000Y619000D03*
X67000Y619000D03*
X79000Y619000D03*
X19000Y631000D03*
X31000Y631000D03*
X43000Y631000D03*
X55000Y631000D03*
X67000Y631000D03*
X79000Y631000D03*
X91000Y631000D03*
X19000Y643000D03*
X31000Y643000D03*
X43000Y643000D03*
X55000Y643000D03*
X67000Y643000D03*
X79000Y643000D03*
X19000Y655000D03*
X31000Y655000D03*
X43000Y655000D03*
X55000Y655000D03*
X67000Y655000D03*
X79000Y655000D03*
X19000Y667000D03*
X31000Y667000D03*
X43000Y667000D03*
X55000Y667000D03*
X67000Y667000D03*
X79000Y667000D03*
X19000Y679000D03*
X31000Y679000D03*
X43000Y679000D03*
X55000Y679000D03*
X67000Y679000D03*
X79000Y679000D03*
X91000Y679000D03*
X19000Y691000D03*
X31000Y691000D03*
X43000Y691000D03*
X55000Y691000D03*
X67000Y691000D03*
X79000Y691000D03*
X91000Y691000D03*
X19000Y703000D03*
X31000Y703000D03*
X43000Y703000D03*
X55000Y703000D03*
X67000Y703000D03*
X79000Y703000D03*
X91000Y703000D03*
X19000Y715000D03*
X31000Y715000D03*
X43000Y715000D03*
X55000Y715000D03*
X67000Y715000D03*
X19000Y727000D03*
X31000Y727000D03*
X43000Y727000D03*
X55000Y727000D03*
X19000Y739000D03*
X31000Y739000D03*
X43000Y739000D03*
X55000Y739000D03*
X67000Y739000D03*
X19000Y751000D03*
X31000Y751000D03*
X43000Y751000D03*
X19000Y763000D03*
X31000Y763000D03*
X43000Y763000D03*
X19000Y775000D03*
X31000Y775000D03*
X43000Y775000D03*
X19000Y787000D03*
X604000Y731000D03*
X592000Y731000D03*
X544000Y731000D03*
X604000Y719000D03*
X592000Y719000D03*
X544000Y719000D03*
X604000Y707000D03*
X592000Y707000D03*
X544000Y707000D03*
X604000Y695000D03*
X592000Y695000D03*
X580000Y695000D03*
X568000Y695000D03*
X592000Y659000D03*
X604000Y659000D03*
X592000Y671000D03*
X604000Y671000D03*
X592000Y683000D03*
X604000Y683000D03*
X544000Y695000D03*
X556000Y695000D03*
X604000Y575000D03*
X592000Y575000D03*
X544000Y575000D03*
X604000Y563000D03*
X592000Y563000D03*
X544000Y563000D03*
X604000Y551000D03*
X592000Y551000D03*
X544000Y551000D03*
X604000Y539000D03*
X592000Y539000D03*
X580000Y539000D03*
X592000Y503000D03*
X604000Y503000D03*
X592000Y515000D03*
X604000Y515000D03*
X592000Y527000D03*
X604000Y527000D03*
X544000Y539000D03*
X606000Y418000D03*
X594000Y418000D03*
X546000Y418000D03*
X606000Y406000D03*
X594000Y406000D03*
X546000Y406000D03*
X606000Y394000D03*
X594000Y394000D03*
X546000Y394000D03*
X606000Y382000D03*
X594000Y382000D03*
X594000Y346000D03*
X606000Y346000D03*
X594000Y358000D03*
X606000Y358000D03*
X594000Y370000D03*
X606000Y370000D03*
X546000Y382000D03*
X607070Y261000D03*
X595070Y261000D03*
X547070Y261000D03*
X607070Y249000D03*
X595070Y249000D03*
X547070Y249000D03*
X607070Y237000D03*
X595070Y237000D03*
X547070Y237000D03*
X607070Y225000D03*
X595070Y225000D03*
X595070Y201000D03*
X607070Y201000D03*
X595070Y213000D03*
X607070Y213000D03*
X547070Y225000D03*
X605000Y105000D03*
X593000Y105000D03*
X545000Y105000D03*
X605000Y93000D03*
X593000Y93000D03*
X545000Y93000D03*
X605000Y81000D03*
X593000Y81000D03*
X545000Y81000D03*
X605000Y69000D03*
X593000Y69000D03*
X593000Y33000D03*
X605000Y33000D03*
X593000Y45000D03*
X605000Y45000D03*
X593000Y57000D03*
X605000Y57000D03*
X545000Y69000D03*
D31*
X725500Y37000D02*
X740000Y37000D01*
D32*
X740000Y37000D03*
D31*
X740000Y78000D02*
X722000Y78000D01*
D32*
X740000Y78000D03*
D31*
X717000Y242000D02*
X714000Y242000D01*
X718000Y200000D02*
X722500Y200000D01*
X714000Y227000D02*
X714000Y242000D01*
X722500Y218500D02*
X722500Y200000D01*
X740000Y241000D02*
X739000Y242000D01*
X714000Y242000D01*
D32*
X740000Y241000D03*
D31*
X720000Y539000D02*
X720000Y553000D01*
X720000Y539000D02*
X729000Y530000D01*
X729000Y513500D01*
X729500Y513000D01*
X721000Y691000D02*
X721000Y706000D01*
X728500Y683500D02*
X728500Y667000D01*
X721000Y706000D02*
X755000Y706000D01*
D32*
X755000Y706000D03*
D31*
X750000Y554000D02*
X749000Y553000D01*
X720000Y553000D01*
D32*
X750000Y554000D03*
X777000Y877000D03*
X765000Y877000D03*
X753000Y877000D03*
X741000Y877000D03*
X669000Y841000D03*
X657000Y841000D03*
X645000Y841000D03*
X633000Y841000D03*
X621000Y841000D03*
X609000Y841000D03*
X597000Y841000D03*
X585000Y841000D03*
X681000Y841000D03*
X693000Y841000D03*
X705000Y841000D03*
X717000Y841000D03*
X729000Y841000D03*
X741000Y841000D03*
X753000Y841000D03*
X765000Y841000D03*
X777000Y841000D03*
X585000Y853000D03*
X597000Y853000D03*
X609000Y853000D03*
X621000Y853000D03*
X633000Y853000D03*
X645000Y853000D03*
X657000Y853000D03*
X669000Y853000D03*
X681000Y853000D03*
X693000Y853000D03*
X705000Y853000D03*
X717000Y853000D03*
X729000Y853000D03*
X741000Y853000D03*
X753000Y853000D03*
X765000Y853000D03*
X777000Y853000D03*
X585000Y865000D03*
X597000Y865000D03*
X609000Y865000D03*
X621000Y865000D03*
X633000Y865000D03*
X645000Y865000D03*
X657000Y865000D03*
X669000Y865000D03*
X681000Y865000D03*
X693000Y865000D03*
X705000Y865000D03*
X717000Y865000D03*
X729000Y865000D03*
X741000Y865000D03*
X753000Y865000D03*
X765000Y865000D03*
X777000Y865000D03*
X585000Y877000D03*
X597000Y877000D03*
X609000Y877000D03*
X621000Y877000D03*
X633000Y877000D03*
X645000Y877000D03*
X657000Y877000D03*
X669000Y877000D03*
X681000Y877000D03*
X693000Y877000D03*
X705000Y877000D03*
X717000Y877000D03*
X729000Y877000D03*
D31*
X879690Y588376D02*
X903376Y588376D01*
D32*
X717282Y392282D03*
D31*
X720000Y553000D02*
X725000Y553000D01*
X720000Y553000D01*
X720000Y552000D01*
X725000Y552000D01*
X727000Y706000D02*
X721000Y706000D01*
X727000Y706000D01*
X721000Y691000D02*
X728500Y683500D01*
X690000Y392500D02*
X690000Y353500D01*
X690000Y392500D02*
X717064Y392500D01*
X717282Y392282D01*
X715000Y242000D02*
X714000Y242000D01*
X715000Y242000D01*
X714000Y242000D01*
X714000Y227000D02*
X722500Y218500D01*
X686000Y349500D02*
X690000Y353500D01*
X686000Y349500D02*
X687500Y348000D01*
X118206Y700794D02*
X94000Y725000D01*
X118206Y700794D02*
X118206Y687173D01*
X94000Y745000D02*
X66000Y773000D01*
X94000Y745000D02*
X94000Y725000D01*
D32*
X903456Y588456D03*
D31*
X903376Y588376D01*
X200000Y824172D02*
X200000Y825000D01*
X175000Y850000D01*
X75000Y850000D01*
X66000Y841000D01*
X66000Y773000D01*
X842000Y614500D02*
X851500Y614500D01*
X878014Y614500D01*
X879690Y616176D01*
D32*
X561000Y789000D03*
X549000Y789000D03*
X537000Y789000D03*
X525000Y789000D03*
X561000Y777000D03*
X549000Y777000D03*
X537000Y777000D03*
X525000Y777000D03*
X525000Y765000D03*
X537000Y765000D03*
X549000Y765000D03*
X561000Y765000D03*
X636000Y172000D03*
X624000Y172000D03*
X612000Y172000D03*
X600000Y172000D03*
X588000Y172000D03*
X636000Y160000D03*
X624000Y160000D03*
X612000Y160000D03*
X528000Y160000D03*
X540000Y160000D03*
X552000Y160000D03*
X564000Y160000D03*
X576000Y160000D03*
X588000Y160000D03*
X600000Y160000D03*
X563000Y314000D03*
X551000Y314000D03*
X539000Y314000D03*
X527000Y314000D03*
X563000Y302000D03*
X551000Y302000D03*
X539000Y302000D03*
X527000Y302000D03*
X527000Y290000D03*
X539000Y290000D03*
X551000Y290000D03*
X563000Y290000D03*
X563000Y471000D03*
X551000Y471000D03*
X539000Y471000D03*
X527000Y471000D03*
X563000Y459000D03*
X551000Y459000D03*
X539000Y459000D03*
X527000Y459000D03*
X527000Y447000D03*
X539000Y447000D03*
X551000Y447000D03*
X563000Y447000D03*
X561000Y628000D03*
X549000Y628000D03*
X537000Y628000D03*
X525000Y628000D03*
X561000Y616000D03*
X549000Y616000D03*
X537000Y616000D03*
X525000Y616000D03*
X525000Y604000D03*
X537000Y604000D03*
X549000Y604000D03*
X561000Y604000D03*
X296000Y813000D03*
X260000Y813000D03*
X248000Y813000D03*
X236000Y813000D03*
X224000Y813000D03*
X176000Y813000D03*
X164000Y813000D03*
X152000Y813000D03*
X140000Y813000D03*
X128000Y813000D03*
X116000Y813000D03*
X104000Y813000D03*
X248000Y801000D03*
X236000Y801000D03*
X224000Y801000D03*
X176000Y801000D03*
X164000Y801000D03*
X152000Y801000D03*
X140000Y801000D03*
X116000Y801000D03*
X104000Y801000D03*
X248000Y789000D03*
X236000Y789000D03*
X164000Y789000D03*
X152000Y789000D03*
X104000Y789000D03*
X248000Y777000D03*
X236000Y777000D03*
X164000Y777000D03*
X152000Y777000D03*
X248000Y765000D03*
X236000Y765000D03*
X164000Y765000D03*
X152000Y765000D03*
X296000Y753000D03*
X284000Y753000D03*
X272000Y753000D03*
X260000Y753000D03*
X248000Y753000D03*
X236000Y753000D03*
X296000Y693000D03*
X284000Y693000D03*
X272000Y693000D03*
X260000Y693000D03*
X296000Y681000D03*
X284000Y681000D03*
X272000Y681000D03*
X260000Y681000D03*
X260000Y705000D03*
X272000Y705000D03*
X284000Y705000D03*
X296000Y705000D03*
X152000Y717000D03*
X164000Y717000D03*
X176000Y717000D03*
X188000Y717000D03*
X200000Y717000D03*
X212000Y717000D03*
X224000Y717000D03*
X236000Y717000D03*
X248000Y717000D03*
X260000Y717000D03*
X272000Y717000D03*
X284000Y717000D03*
X296000Y717000D03*
X140000Y729000D03*
X152000Y729000D03*
X164000Y729000D03*
X176000Y729000D03*
X224000Y729000D03*
X236000Y729000D03*
X248000Y729000D03*
X260000Y729000D03*
X272000Y729000D03*
X284000Y729000D03*
X296000Y729000D03*
X140000Y741000D03*
X152000Y741000D03*
X164000Y741000D03*
X176000Y741000D03*
X224000Y741000D03*
X236000Y741000D03*
X248000Y741000D03*
X260000Y741000D03*
X272000Y741000D03*
X284000Y741000D03*
X296000Y741000D03*
X152000Y753000D03*
X164000Y753000D03*
X176000Y753000D03*
X224000Y753000D03*
D31*
X842000Y619621D02*
X842000Y614500D01*
D33*
X879690Y616176D02*
X879690Y656310D01*
X724000Y812000D01*
X529844Y812000D01*
D31*
X879690Y616176D02*
X887517Y616176D01*
D32*
X518000Y813000D03*
X506000Y813000D03*
X494000Y813000D03*
X482000Y813000D03*
X470000Y813000D03*
X458000Y813000D03*
X446000Y813000D03*
X434000Y813000D03*
X422000Y813000D03*
X410000Y813000D03*
X314000Y813000D03*
X326000Y813000D03*
X338000Y813000D03*
X350000Y813000D03*
X362000Y813000D03*
X374000Y813000D03*
X386000Y813000D03*
X398000Y813000D03*
D31*
X124000Y773000D02*
X124000Y731000D01*
X123000Y730000D01*
X147000Y706000D01*
X217000Y706000D01*
X219000Y708000D01*
X225706Y701294D01*
X225706Y687173D01*
X901530Y221172D02*
X915486Y207216D01*
X919586Y207216D01*
X931532Y572161D02*
X887517Y616176D01*
X901530Y253356D02*
X901530Y221172D01*
X901530Y253356D02*
X931532Y283358D01*
X931532Y572161D01*
X449880Y115050D02*
X449880Y102350D01*
X449880Y89650D01*
X449880Y76950D01*
X424930Y52000D01*
X424000Y52000D01*
X445410Y52000D01*
X458250Y39160D01*
X449880Y115050D02*
X447000Y117930D01*
X447000Y145524D01*
X718500Y113000D02*
X718500Y102500D01*
X694000Y78000D01*
X718500Y113000D02*
X718500Y113500D01*
X754330Y228550D02*
X754330Y248450D01*
X884100Y451203D02*
X884100Y454024D01*
X737116Y265664D02*
X754330Y248450D01*
X741516Y136516D02*
X718500Y113500D01*
X737116Y265664D02*
X737116Y304219D01*
X884100Y451203D01*
X754330Y228550D02*
X741516Y215736D01*
X741516Y136516D01*
X706500Y261500D02*
X706500Y279000D01*
X706500Y261500D02*
X687000Y242000D01*
X858700Y443700D02*
X858700Y454024D01*
X858700Y443700D02*
X706500Y291500D01*
X706500Y279000D01*
X690000Y420500D02*
X808072Y420500D01*
X833300Y445729D02*
X833300Y454024D01*
X833300Y445729D02*
X808072Y420500D01*
X690000Y455500D02*
X686500Y459000D01*
X690000Y455500D02*
X690000Y420500D01*
X697000Y552000D02*
X719500Y574500D01*
X719500Y590000D01*
X807900Y454024D02*
X807900Y451900D01*
X790000Y434000D01*
X732000Y434000D01*
X712000Y454000D01*
X712000Y521000D01*
X712000Y537000D01*
X697000Y552000D01*
X395120Y551950D02*
X395120Y530851D01*
X394269Y530000D01*
X394745Y529524D01*
X394745Y494000D01*
X426476Y331524D02*
X427000Y331000D01*
X426476Y331524D02*
X426476Y335524D01*
X427000Y331000D02*
X546000Y331000D01*
X564750Y349750D01*
X564750Y355000D01*
X512000Y115050D02*
X512000Y102350D01*
X512000Y89650D01*
X512000Y76950D01*
X512000Y39160D01*
X633000Y242000D02*
X633000Y279000D01*
X633000Y242000D02*
X633000Y200000D01*
X626050Y272050D02*
X566000Y272050D01*
X626050Y272050D02*
X633000Y279000D01*
X635000Y429000D02*
X566050Y429000D01*
X566000Y429050D01*
X635000Y419000D02*
X635000Y390000D01*
X634000Y389000D01*
X634000Y351000D01*
X635000Y419000D02*
X635000Y429000D01*
X635000Y428000D01*
X634000Y590000D02*
X563950Y590000D01*
X563000Y589050D01*
X633000Y552000D02*
X634000Y551000D01*
X634000Y514000D01*
X636000Y512000D01*
X634000Y553000D02*
X634000Y590000D01*
X634000Y553000D02*
X633000Y552000D01*
X630000Y115000D02*
X632000Y113000D01*
X630000Y115000D02*
X566050Y115000D01*
X566000Y115050D01*
X632000Y113000D02*
X632000Y80000D01*
X632000Y78000D01*
X632000Y80000D02*
X632000Y37000D01*
X663000Y693000D02*
X663000Y707000D01*
X663000Y693000D02*
X648000Y678000D01*
X648000Y565000D01*
X661000Y552000D01*
X649000Y540000D01*
X649000Y402000D01*
X662000Y389000D01*
X662000Y376000D01*
X648000Y362000D01*
X648000Y255000D01*
X661000Y242000D01*
X661000Y226000D01*
X647000Y212000D01*
X647000Y91000D01*
X660000Y78000D01*
X837000Y120000D02*
X837369Y120000D01*
X894586Y177216D02*
X919586Y177216D01*
X894586Y177216D02*
X837369Y120000D01*
X678340Y59660D02*
X660000Y78000D01*
X678340Y59660D02*
X812660Y59660D01*
X824484Y71484D01*
X824484Y105542D01*
X837000Y118058D01*
X837000Y120000D01*
X538223Y488000D02*
X562399Y512176D01*
X538223Y488000D02*
X435000Y488000D01*
X428745Y488000D01*
X422745Y494000D01*
X396120Y391126D02*
X396120Y371880D01*
X399000Y369000D01*
X399000Y336048D01*
X398476Y335524D01*
X396120Y76950D02*
X396120Y52120D01*
X396000Y52000D01*
X396000Y21926D01*
X395478Y21404D01*
X541250Y14660D02*
X565750Y39160D01*
X541250Y14660D02*
X429730Y14660D01*
X423474Y20916D01*
X396120Y214120D02*
X396120Y232950D01*
X396120Y214120D02*
X395000Y213000D01*
X396000Y212000D01*
X396000Y179524D01*
X424000Y179524D02*
X431524Y172000D01*
X547000Y172000D01*
X563750Y188750D01*
X563750Y193000D01*
X561750Y664750D02*
X561750Y668176D01*
X561750Y664750D02*
X547152Y650152D01*
X422848Y650152D01*
X421000Y652000D01*
X563000Y748050D02*
X631950Y748050D01*
X635000Y745000D01*
X635000Y707000D01*
X635000Y666000D01*
X397120Y692120D02*
X397120Y711950D01*
X397120Y692120D02*
X392000Y687000D01*
X393000Y686000D01*
X393000Y652000D01*
X782500Y553500D02*
X782500Y454024D01*
X782500Y553500D02*
X716000Y620000D01*
X711000Y625000D01*
X711000Y682000D01*
X711000Y694000D01*
X699000Y706000D01*
X721500Y728500D01*
X721500Y744000D01*
X808000Y613900D02*
X831900Y613900D01*
X832500Y614500D01*
X808000Y613900D02*
X778900Y613900D01*
X777000Y612000D01*
X850674Y566000D02*
X855674Y566000D01*
X852000Y562326D01*
X851500Y566826D02*
X851500Y589500D01*
X850674Y566000D02*
X847674Y563000D01*
X850674Y566000D02*
X851500Y566826D01*
X826150Y563000D02*
X825000Y561850D01*
X826150Y563000D02*
X847674Y563000D01*
X696500Y590000D02*
X662000Y590000D01*
X664000Y513000D02*
X694500Y513000D01*
X664000Y513000D02*
X664000Y512000D01*
X692500Y666000D02*
X693500Y667000D01*
X692500Y666000D02*
X663000Y666000D01*
X663000Y745000D02*
X697500Y745000D01*
X698500Y744000D01*
X690500Y37000D02*
X660000Y37000D01*
X660000Y113000D02*
X695500Y113000D01*
X687500Y200000D02*
X661000Y200000D01*
X661000Y279000D02*
X683500Y279000D01*
X684500Y313000D02*
X687500Y313000D01*
X684500Y328500D02*
X662000Y351000D01*
X684500Y328500D02*
X684500Y313000D01*
X663500Y428500D02*
X663500Y459000D01*
X663500Y428500D02*
X663000Y428000D01*
X809000Y120000D02*
X809000Y92500D01*
X806500Y90000D01*
X811400Y589500D02*
X832500Y589500D01*
X811400Y589500D02*
X808000Y586100D01*
X851566Y505000D02*
X851790Y504776D01*
X851790Y500926D01*
X909500Y418445D02*
X909500Y301624D01*
X851566Y505000D02*
X823240Y505000D01*
X851790Y500210D02*
X861348Y490652D01*
X851790Y500210D02*
X851790Y504776D01*
X924516Y476587D02*
X924516Y433461D01*
X909500Y418445D01*
X924516Y476587D02*
X910451Y490652D01*
X861348Y490652D01*
M02*
