G04 EAGLE Gerber RS-274X export*
G75*
%MOMM*%
%FSLAX34Y34*%
%LPD*%
%INSoldermask Top*%
%IPPOS*%
%AMOC8*
5,1,8,0,0,1.08239X$1,22.5*%
G01*
G04 Define Apertures*
%ADD10C,3.403200*%
%ADD11C,1.903200*%
%ADD12R,1.803200X2.003200*%
%ADD13R,1.703200X0.853200*%
%ADD14R,1.728200X0.853200*%
%ADD15R,3.203200X3.203200*%
%ADD16C,3.203200*%
%ADD17C,2.003200*%
%ADD18C,1.711200*%
%ADD19C,1.411200*%
%ADD20R,2.678200X3.203200*%
%ADD21R,3.203200X2.678200*%
%ADD22R,0.803200X1.403200*%
%ADD23R,2.353200X3.903200*%
%ADD24R,2.003200X1.803200*%
%ADD25R,1.003200X1.103200*%
%ADD26R,1.703200X1.703200*%
%ADD27R,2.403200X1.653200*%
%ADD28R,1.253200X2.023200*%
%ADD29R,2.023200X1.253200*%
%ADD30R,1.573200X1.323200*%
%ADD31P,1.95198X8X22.5*%
%ADD32C,0.959600*%
D10*
X900000Y50000D03*
X900000Y850000D03*
X200000Y780000D03*
D11*
X909500Y471024D02*
X909500Y454024D01*
X884100Y454024D02*
X884100Y471024D01*
X858700Y471024D02*
X858700Y454024D01*
X833300Y454024D02*
X833300Y471024D01*
X807900Y471024D02*
X807900Y454024D01*
X782500Y454024D02*
X782500Y471024D01*
X757100Y471024D02*
X757100Y454024D01*
X757100Y301624D02*
X757100Y284624D01*
X782500Y284624D02*
X782500Y301624D01*
X807900Y301624D02*
X807900Y284624D01*
X833300Y284624D02*
X833300Y301624D01*
X858700Y301624D02*
X858700Y284624D01*
X884100Y284624D02*
X884100Y301624D01*
X909500Y301624D02*
X909500Y284624D01*
D12*
X661000Y552000D03*
X633000Y552000D03*
X660000Y78000D03*
X632000Y78000D03*
X662000Y389000D03*
X634000Y389000D03*
X661000Y242000D03*
X633000Y242000D03*
X394269Y530000D03*
X422269Y530000D03*
X422745Y494000D03*
X394745Y494000D03*
X426476Y335524D03*
X398476Y335524D03*
X399000Y369000D03*
X427000Y369000D03*
X396000Y52000D03*
X424000Y52000D03*
G36*
X414635Y31087D02*
X432663Y30773D01*
X432313Y10745D01*
X414285Y11059D01*
X414635Y31087D01*
G37*
G36*
X386639Y31575D02*
X404667Y31261D01*
X404317Y11233D01*
X386289Y11547D01*
X386639Y31575D01*
G37*
X424000Y179524D03*
X396000Y179524D03*
X395000Y213000D03*
X423000Y213000D03*
D13*
X563000Y550950D03*
X563000Y563650D03*
X563000Y576350D03*
X563000Y589050D03*
X509000Y589050D03*
X509000Y576350D03*
X509000Y563650D03*
X509000Y550950D03*
X566000Y76950D03*
X566000Y89650D03*
X566000Y102350D03*
X566000Y115050D03*
X512000Y115050D03*
X512000Y102350D03*
X512000Y89650D03*
X512000Y76950D03*
X566000Y390950D03*
X566000Y403650D03*
X566000Y416350D03*
X566000Y429050D03*
X512000Y429050D03*
X512000Y416350D03*
X512000Y403650D03*
X512000Y390950D03*
X566000Y233950D03*
X566000Y246650D03*
X566000Y259350D03*
X566000Y272050D03*
X512000Y272050D03*
X512000Y259350D03*
X512000Y246650D03*
X512000Y233950D03*
D14*
X396120Y429226D03*
X396120Y416526D03*
X396120Y403826D03*
X396120Y391126D03*
X449880Y391126D03*
X449880Y403826D03*
X449880Y416526D03*
X449880Y429226D03*
X395120Y590050D03*
X395120Y577350D03*
X395120Y564650D03*
X395120Y551950D03*
X448880Y551950D03*
X448880Y564650D03*
X448880Y577350D03*
X448880Y590050D03*
X396120Y115050D03*
X396120Y102350D03*
X396120Y89650D03*
X396120Y76950D03*
X449880Y76950D03*
X449880Y89650D03*
X449880Y102350D03*
X449880Y115050D03*
X396120Y271050D03*
X396120Y258350D03*
X396120Y245650D03*
X396120Y232950D03*
X449880Y232950D03*
X449880Y245650D03*
X449880Y258350D03*
X449880Y271050D03*
D12*
X663000Y707000D03*
X635000Y707000D03*
X392000Y687000D03*
X420000Y687000D03*
X421000Y652000D03*
X393000Y652000D03*
D13*
X563000Y709950D03*
X563000Y722650D03*
X563000Y735350D03*
X563000Y748050D03*
X509000Y748050D03*
X509000Y735350D03*
X509000Y722650D03*
X509000Y709950D03*
D14*
X397120Y750050D03*
X397120Y737350D03*
X397120Y724650D03*
X397120Y711950D03*
X450880Y711950D03*
X450880Y724650D03*
X450880Y737350D03*
X450880Y750050D03*
D15*
X63000Y587500D03*
D16*
X188000Y512500D03*
X63000Y437500D03*
X188000Y362500D03*
X63000Y287500D03*
X188000Y212500D03*
X63000Y137500D03*
X188000Y62500D03*
D17*
X66000Y764000D02*
X66000Y782000D01*
X124000Y782000D02*
X124000Y764000D01*
X103000Y725000D02*
X85000Y725000D01*
D18*
X919586Y147216D03*
X919586Y177216D03*
X919586Y207216D03*
D19*
X924086Y114716D02*
X915086Y114716D01*
X915086Y239716D02*
X924086Y239716D01*
D20*
X447000Y145524D03*
X393250Y145524D03*
X500750Y145524D03*
X446000Y301000D03*
X392250Y301000D03*
X499750Y301000D03*
X448000Y459476D03*
X394250Y459476D03*
X501750Y459476D03*
X442000Y618000D03*
X388250Y618000D03*
X495750Y618000D03*
D21*
G36*
X428582Y762008D02*
X428637Y794039D01*
X455418Y793992D01*
X455363Y761961D01*
X428582Y762008D01*
G37*
G36*
X374832Y762102D02*
X374887Y794133D01*
X401668Y794086D01*
X401613Y762055D01*
X374832Y762102D01*
G37*
G36*
X482332Y761914D02*
X482387Y793945D01*
X509168Y793898D01*
X509113Y761867D01*
X482332Y761914D01*
G37*
D20*
X171956Y687173D03*
X225706Y687173D03*
X118206Y687173D03*
X512000Y39160D03*
X458250Y39160D03*
X565750Y39160D03*
X508649Y512176D03*
X454899Y512176D03*
X562399Y512176D03*
X510000Y193000D03*
X456250Y193000D03*
X563750Y193000D03*
X508000Y668176D03*
X454250Y668176D03*
X561750Y668176D03*
X511000Y355000D03*
X457250Y355000D03*
X564750Y355000D03*
D22*
X832500Y589500D03*
X842000Y589500D03*
X851500Y589500D03*
X851500Y614500D03*
X842000Y614500D03*
X832500Y614500D03*
D12*
X880000Y562326D03*
X852000Y562326D03*
X825000Y561850D03*
X797000Y561850D03*
D23*
X278594Y785340D03*
X278594Y853340D03*
D24*
X364000Y701000D03*
X364000Y729000D03*
X365476Y542000D03*
X365476Y570000D03*
X368000Y380000D03*
X368000Y408000D03*
X368000Y223000D03*
X368000Y251000D03*
X369000Y66000D03*
X369000Y94000D03*
D12*
X809000Y120000D03*
X837000Y120000D03*
X636000Y512000D03*
X664000Y512000D03*
X697000Y552000D03*
X725000Y552000D03*
X634000Y590000D03*
X662000Y590000D03*
D25*
X696500Y590000D03*
X719500Y590000D03*
D26*
X694500Y513000D03*
X729500Y513000D03*
D12*
X635000Y666000D03*
X663000Y666000D03*
X699000Y706000D03*
X727000Y706000D03*
X635000Y745000D03*
X663000Y745000D03*
D25*
X698500Y744000D03*
X721500Y744000D03*
D26*
X693500Y667000D03*
X728500Y667000D03*
D12*
X632000Y37000D03*
X660000Y37000D03*
X694000Y78000D03*
X722000Y78000D03*
X632000Y113000D03*
X660000Y113000D03*
D25*
X695500Y113000D03*
X718500Y113000D03*
D26*
X690500Y37000D03*
X725500Y37000D03*
D12*
X633000Y200000D03*
X661000Y200000D03*
X687000Y242000D03*
X715000Y242000D03*
X633000Y279000D03*
X661000Y279000D03*
D25*
X683500Y279000D03*
X706500Y279000D03*
D26*
X687500Y200000D03*
X722500Y200000D03*
D12*
X634000Y351000D03*
X662000Y351000D03*
D24*
X690000Y420500D03*
X690000Y392500D03*
D12*
X635000Y428000D03*
X663000Y428000D03*
D25*
X663500Y459000D03*
X686500Y459000D03*
D26*
X687500Y313000D03*
X687500Y348000D03*
X806500Y90000D03*
X841500Y90000D03*
D27*
X777000Y612000D03*
X777000Y592000D03*
D28*
X879900Y534000D03*
X852100Y534000D03*
D29*
X808000Y586100D03*
X808000Y613900D03*
X879690Y588376D03*
X879690Y616176D03*
D28*
X879590Y504776D03*
X851790Y504776D03*
D30*
X823240Y505000D03*
X823240Y535000D03*
D12*
X99000Y652000D03*
X127000Y652000D03*
D31*
X341000Y47000D03*
X340000Y220000D03*
X340000Y370000D03*
X338475Y530000D03*
X340000Y680000D03*
X200000Y650000D03*
X200000Y740000D03*
X200000Y824172D03*
D32*
X362000Y15000D03*
X374000Y15000D03*
X362000Y27000D03*
X374000Y27000D03*
X362000Y39000D03*
X374000Y39000D03*
X362000Y173000D03*
X374000Y173000D03*
X362000Y185000D03*
X374000Y185000D03*
X362000Y197000D03*
X374000Y197000D03*
X363000Y330000D03*
X375000Y330000D03*
X363000Y342000D03*
X375000Y342000D03*
X363000Y354000D03*
X375000Y354000D03*
X361000Y487000D03*
X373000Y487000D03*
X361000Y499000D03*
X373000Y499000D03*
X361000Y511000D03*
X373000Y511000D03*
X371000Y681000D03*
X371000Y669000D03*
X359000Y669000D03*
X371000Y657000D03*
X359000Y657000D03*
X371000Y645000D03*
X359000Y645000D03*
X79000Y883000D03*
X67000Y883000D03*
X55000Y883000D03*
X43000Y883000D03*
X31000Y883000D03*
X19000Y883000D03*
X79000Y871000D03*
X67000Y871000D03*
X55000Y871000D03*
X43000Y871000D03*
X31000Y871000D03*
X19000Y871000D03*
X79000Y859000D03*
X67000Y859000D03*
X55000Y859000D03*
X43000Y859000D03*
X31000Y859000D03*
X19000Y859000D03*
X55000Y847000D03*
X43000Y847000D03*
X31000Y847000D03*
X19000Y847000D03*
X79000Y835000D03*
X55000Y835000D03*
X43000Y835000D03*
X31000Y835000D03*
X19000Y835000D03*
X79000Y823000D03*
X55000Y823000D03*
X43000Y823000D03*
X31000Y823000D03*
X19000Y823000D03*
X79000Y811000D03*
X55000Y811000D03*
X43000Y811000D03*
X31000Y811000D03*
X19000Y811000D03*
X79000Y799000D03*
X43000Y799000D03*
X31000Y799000D03*
X19000Y799000D03*
X43000Y787000D03*
X31000Y787000D03*
X91000Y31000D03*
X79000Y31000D03*
X67000Y31000D03*
X55000Y31000D03*
X43000Y31000D03*
X31000Y31000D03*
X19000Y31000D03*
X331000Y19000D03*
X319000Y19000D03*
X307000Y19000D03*
X295000Y19000D03*
X283000Y19000D03*
X271000Y19000D03*
X259000Y19000D03*
X247000Y19000D03*
X235000Y19000D03*
X223000Y19000D03*
X211000Y19000D03*
X199000Y19000D03*
X187000Y19000D03*
X175000Y19000D03*
X163000Y19000D03*
X151000Y19000D03*
X139000Y19000D03*
X127000Y19000D03*
X115000Y19000D03*
X103000Y19000D03*
X91000Y19000D03*
X79000Y19000D03*
X67000Y19000D03*
X55000Y19000D03*
X43000Y19000D03*
X31000Y19000D03*
X19000Y19000D03*
X103000Y31000D03*
X115000Y31000D03*
X127000Y31000D03*
X139000Y31000D03*
X19000Y43000D03*
X31000Y43000D03*
X43000Y43000D03*
X55000Y43000D03*
X67000Y43000D03*
X79000Y43000D03*
X91000Y43000D03*
X103000Y43000D03*
X115000Y43000D03*
X127000Y43000D03*
X139000Y43000D03*
X19000Y55000D03*
X31000Y55000D03*
X43000Y55000D03*
X55000Y55000D03*
X67000Y55000D03*
X79000Y55000D03*
X91000Y55000D03*
X103000Y55000D03*
X115000Y55000D03*
X127000Y55000D03*
X139000Y55000D03*
X19000Y67000D03*
X31000Y67000D03*
X43000Y67000D03*
X55000Y67000D03*
X67000Y67000D03*
X79000Y67000D03*
X91000Y67000D03*
X103000Y67000D03*
X115000Y67000D03*
X127000Y67000D03*
X139000Y67000D03*
X19000Y79000D03*
X31000Y79000D03*
X43000Y79000D03*
X55000Y79000D03*
X67000Y79000D03*
X79000Y79000D03*
X91000Y79000D03*
X103000Y79000D03*
X115000Y79000D03*
X127000Y79000D03*
X139000Y79000D03*
X19000Y91000D03*
X31000Y91000D03*
X43000Y91000D03*
X55000Y91000D03*
X67000Y91000D03*
X79000Y91000D03*
X91000Y91000D03*
X103000Y91000D03*
X115000Y91000D03*
X127000Y91000D03*
X139000Y91000D03*
X19000Y103000D03*
X31000Y103000D03*
X19000Y115000D03*
X31000Y115000D03*
X19000Y127000D03*
X31000Y127000D03*
X19000Y139000D03*
X31000Y139000D03*
X19000Y151000D03*
X31000Y151000D03*
X19000Y163000D03*
X31000Y163000D03*
X19000Y175000D03*
X31000Y175000D03*
X19000Y187000D03*
X31000Y187000D03*
X43000Y187000D03*
X55000Y187000D03*
X67000Y187000D03*
X79000Y187000D03*
X91000Y187000D03*
X103000Y187000D03*
X115000Y187000D03*
X127000Y187000D03*
X139000Y187000D03*
X19000Y199000D03*
X31000Y199000D03*
X43000Y199000D03*
X55000Y199000D03*
X67000Y199000D03*
X79000Y199000D03*
X91000Y199000D03*
X103000Y199000D03*
X115000Y199000D03*
X127000Y199000D03*
X139000Y199000D03*
X19000Y211000D03*
X31000Y211000D03*
X43000Y211000D03*
X55000Y211000D03*
X67000Y211000D03*
X79000Y211000D03*
X91000Y211000D03*
X103000Y211000D03*
X115000Y211000D03*
X127000Y211000D03*
X139000Y211000D03*
X19000Y223000D03*
X31000Y223000D03*
X43000Y223000D03*
X55000Y223000D03*
X67000Y223000D03*
X79000Y223000D03*
X91000Y223000D03*
X103000Y223000D03*
X115000Y223000D03*
X127000Y223000D03*
X139000Y223000D03*
X19000Y235000D03*
X31000Y235000D03*
X43000Y235000D03*
X55000Y235000D03*
X67000Y235000D03*
X79000Y235000D03*
X91000Y235000D03*
X103000Y235000D03*
X115000Y235000D03*
X127000Y235000D03*
X139000Y235000D03*
X19000Y247000D03*
X31000Y247000D03*
X19000Y259000D03*
X31000Y259000D03*
X19000Y271000D03*
X31000Y271000D03*
X19000Y283000D03*
X31000Y283000D03*
X19000Y295000D03*
X31000Y295000D03*
X19000Y307000D03*
X31000Y307000D03*
X19000Y319000D03*
X31000Y319000D03*
X43000Y319000D03*
X55000Y319000D03*
X67000Y319000D03*
X79000Y319000D03*
X91000Y319000D03*
X103000Y319000D03*
X115000Y319000D03*
X127000Y319000D03*
X139000Y319000D03*
X19000Y331000D03*
X31000Y331000D03*
X43000Y331000D03*
X55000Y331000D03*
X67000Y331000D03*
X79000Y331000D03*
X91000Y331000D03*
X103000Y331000D03*
X115000Y331000D03*
X127000Y331000D03*
X139000Y331000D03*
X19000Y343000D03*
X31000Y343000D03*
X43000Y343000D03*
X55000Y343000D03*
X67000Y343000D03*
X79000Y343000D03*
X91000Y343000D03*
X103000Y343000D03*
X115000Y343000D03*
X127000Y343000D03*
X139000Y343000D03*
X19000Y355000D03*
X31000Y355000D03*
X43000Y355000D03*
X55000Y355000D03*
X67000Y355000D03*
X79000Y355000D03*
X91000Y355000D03*
X103000Y355000D03*
X115000Y355000D03*
X127000Y355000D03*
X139000Y355000D03*
X19000Y367000D03*
X31000Y367000D03*
X43000Y367000D03*
X55000Y367000D03*
X67000Y367000D03*
X79000Y367000D03*
X91000Y367000D03*
X103000Y367000D03*
X115000Y367000D03*
X127000Y367000D03*
X139000Y367000D03*
X19000Y379000D03*
X31000Y379000D03*
X43000Y379000D03*
X55000Y379000D03*
X67000Y379000D03*
X79000Y379000D03*
X91000Y379000D03*
X103000Y379000D03*
X115000Y379000D03*
X127000Y379000D03*
X139000Y379000D03*
X19000Y391000D03*
X31000Y391000D03*
X43000Y391000D03*
X55000Y391000D03*
X67000Y391000D03*
X79000Y391000D03*
X91000Y391000D03*
X103000Y391000D03*
X115000Y391000D03*
X127000Y391000D03*
X139000Y391000D03*
X19000Y403000D03*
X31000Y403000D03*
X43000Y403000D03*
X55000Y403000D03*
X67000Y403000D03*
X79000Y403000D03*
X91000Y403000D03*
X103000Y403000D03*
X115000Y403000D03*
X127000Y403000D03*
X139000Y403000D03*
X19000Y415000D03*
X31000Y415000D03*
X19000Y427000D03*
X31000Y427000D03*
X19000Y439000D03*
X31000Y439000D03*
X19000Y451000D03*
X31000Y451000D03*
X19000Y463000D03*
X31000Y463000D03*
X19000Y475000D03*
X31000Y475000D03*
X19000Y487000D03*
X31000Y487000D03*
X19000Y499000D03*
X31000Y499000D03*
X19000Y511000D03*
X31000Y511000D03*
X19000Y523000D03*
X31000Y523000D03*
X19000Y535000D03*
X31000Y535000D03*
X19000Y547000D03*
X31000Y547000D03*
X19000Y559000D03*
X31000Y559000D03*
X19000Y571000D03*
X31000Y571000D03*
X19000Y583000D03*
X31000Y583000D03*
X19000Y595000D03*
X31000Y595000D03*
X19000Y607000D03*
X31000Y607000D03*
X19000Y619000D03*
X31000Y619000D03*
X43000Y619000D03*
X55000Y619000D03*
X67000Y619000D03*
X79000Y619000D03*
X19000Y631000D03*
X31000Y631000D03*
X43000Y631000D03*
X55000Y631000D03*
X67000Y631000D03*
X79000Y631000D03*
X91000Y631000D03*
X19000Y643000D03*
X31000Y643000D03*
X43000Y643000D03*
X55000Y643000D03*
X67000Y643000D03*
X79000Y643000D03*
X19000Y655000D03*
X31000Y655000D03*
X43000Y655000D03*
X55000Y655000D03*
X67000Y655000D03*
X79000Y655000D03*
X19000Y667000D03*
X31000Y667000D03*
X43000Y667000D03*
X55000Y667000D03*
X67000Y667000D03*
X79000Y667000D03*
X19000Y679000D03*
X31000Y679000D03*
X43000Y679000D03*
X55000Y679000D03*
X67000Y679000D03*
X79000Y679000D03*
X91000Y679000D03*
X19000Y691000D03*
X31000Y691000D03*
X43000Y691000D03*
X55000Y691000D03*
X67000Y691000D03*
X79000Y691000D03*
X91000Y691000D03*
X19000Y703000D03*
X31000Y703000D03*
X43000Y703000D03*
X55000Y703000D03*
X67000Y703000D03*
X79000Y703000D03*
X91000Y703000D03*
X19000Y715000D03*
X31000Y715000D03*
X43000Y715000D03*
X55000Y715000D03*
X67000Y715000D03*
X19000Y727000D03*
X31000Y727000D03*
X43000Y727000D03*
X55000Y727000D03*
X19000Y739000D03*
X31000Y739000D03*
X43000Y739000D03*
X55000Y739000D03*
X67000Y739000D03*
X19000Y751000D03*
X31000Y751000D03*
X43000Y751000D03*
X19000Y763000D03*
X31000Y763000D03*
X43000Y763000D03*
X19000Y775000D03*
X31000Y775000D03*
X43000Y775000D03*
X19000Y787000D03*
X604000Y731000D03*
X592000Y731000D03*
X544000Y731000D03*
X604000Y719000D03*
X592000Y719000D03*
X544000Y719000D03*
X604000Y707000D03*
X592000Y707000D03*
X544000Y707000D03*
X604000Y695000D03*
X592000Y695000D03*
X580000Y695000D03*
X568000Y695000D03*
X592000Y659000D03*
X604000Y659000D03*
X592000Y671000D03*
X604000Y671000D03*
X592000Y683000D03*
X604000Y683000D03*
X544000Y695000D03*
X556000Y695000D03*
X604000Y575000D03*
X592000Y575000D03*
X544000Y575000D03*
X604000Y563000D03*
X592000Y563000D03*
X544000Y563000D03*
X604000Y551000D03*
X592000Y551000D03*
X544000Y551000D03*
X604000Y539000D03*
X592000Y539000D03*
X580000Y539000D03*
X592000Y503000D03*
X604000Y503000D03*
X592000Y515000D03*
X604000Y515000D03*
X592000Y527000D03*
X604000Y527000D03*
X544000Y539000D03*
X606000Y418000D03*
X594000Y418000D03*
X546000Y418000D03*
X606000Y406000D03*
X594000Y406000D03*
X546000Y406000D03*
X606000Y394000D03*
X594000Y394000D03*
X546000Y394000D03*
X606000Y382000D03*
X594000Y382000D03*
X594000Y346000D03*
X606000Y346000D03*
X594000Y358000D03*
X606000Y358000D03*
X594000Y370000D03*
X606000Y370000D03*
X546000Y382000D03*
X607070Y261000D03*
X595070Y261000D03*
X547070Y261000D03*
X607070Y249000D03*
X595070Y249000D03*
X547070Y249000D03*
X607070Y237000D03*
X595070Y237000D03*
X547070Y237000D03*
X607070Y225000D03*
X595070Y225000D03*
X595070Y201000D03*
X607070Y201000D03*
X595070Y213000D03*
X607070Y213000D03*
X547070Y225000D03*
X605000Y105000D03*
X593000Y105000D03*
X545000Y105000D03*
X605000Y93000D03*
X593000Y93000D03*
X545000Y93000D03*
X605000Y81000D03*
X593000Y81000D03*
X545000Y81000D03*
X605000Y69000D03*
X593000Y69000D03*
X593000Y33000D03*
X605000Y33000D03*
X593000Y45000D03*
X605000Y45000D03*
X593000Y57000D03*
X605000Y57000D03*
X545000Y69000D03*
X740000Y37000D03*
X740000Y78000D03*
X740000Y241000D03*
X755000Y706000D03*
X750000Y554000D03*
X777000Y877000D03*
X765000Y877000D03*
X753000Y877000D03*
X741000Y877000D03*
X669000Y841000D03*
X657000Y841000D03*
X645000Y841000D03*
X633000Y841000D03*
X621000Y841000D03*
X609000Y841000D03*
X597000Y841000D03*
X585000Y841000D03*
X681000Y841000D03*
X693000Y841000D03*
X705000Y841000D03*
X717000Y841000D03*
X729000Y841000D03*
X741000Y841000D03*
X753000Y841000D03*
X765000Y841000D03*
X777000Y841000D03*
X585000Y853000D03*
X597000Y853000D03*
X609000Y853000D03*
X621000Y853000D03*
X633000Y853000D03*
X645000Y853000D03*
X657000Y853000D03*
X669000Y853000D03*
X681000Y853000D03*
X693000Y853000D03*
X705000Y853000D03*
X717000Y853000D03*
X729000Y853000D03*
X741000Y853000D03*
X753000Y853000D03*
X765000Y853000D03*
X777000Y853000D03*
X585000Y865000D03*
X597000Y865000D03*
X609000Y865000D03*
X621000Y865000D03*
X633000Y865000D03*
X645000Y865000D03*
X657000Y865000D03*
X669000Y865000D03*
X681000Y865000D03*
X693000Y865000D03*
X705000Y865000D03*
X717000Y865000D03*
X729000Y865000D03*
X741000Y865000D03*
X753000Y865000D03*
X765000Y865000D03*
X777000Y865000D03*
X585000Y877000D03*
X597000Y877000D03*
X609000Y877000D03*
X621000Y877000D03*
X633000Y877000D03*
X645000Y877000D03*
X657000Y877000D03*
X669000Y877000D03*
X681000Y877000D03*
X693000Y877000D03*
X705000Y877000D03*
X717000Y877000D03*
X729000Y877000D03*
X717282Y392282D03*
X903456Y588456D03*
X561000Y789000D03*
X549000Y789000D03*
X537000Y789000D03*
X525000Y789000D03*
X561000Y777000D03*
X549000Y777000D03*
X537000Y777000D03*
X525000Y777000D03*
X525000Y765000D03*
X537000Y765000D03*
X549000Y765000D03*
X561000Y765000D03*
X636000Y172000D03*
X624000Y172000D03*
X612000Y172000D03*
X600000Y172000D03*
X588000Y172000D03*
X636000Y160000D03*
X624000Y160000D03*
X612000Y160000D03*
X528000Y160000D03*
X540000Y160000D03*
X552000Y160000D03*
X564000Y160000D03*
X576000Y160000D03*
X588000Y160000D03*
X600000Y160000D03*
X563000Y314000D03*
X551000Y314000D03*
X539000Y314000D03*
X527000Y314000D03*
X563000Y302000D03*
X551000Y302000D03*
X539000Y302000D03*
X527000Y302000D03*
X527000Y290000D03*
X539000Y290000D03*
X551000Y290000D03*
X563000Y290000D03*
X563000Y471000D03*
X551000Y471000D03*
X539000Y471000D03*
X527000Y471000D03*
X563000Y459000D03*
X551000Y459000D03*
X539000Y459000D03*
X527000Y459000D03*
X527000Y447000D03*
X539000Y447000D03*
X551000Y447000D03*
X563000Y447000D03*
X561000Y628000D03*
X549000Y628000D03*
X537000Y628000D03*
X525000Y628000D03*
X561000Y616000D03*
X549000Y616000D03*
X537000Y616000D03*
X525000Y616000D03*
X525000Y604000D03*
X537000Y604000D03*
X549000Y604000D03*
X561000Y604000D03*
X296000Y813000D03*
X260000Y813000D03*
X248000Y813000D03*
X236000Y813000D03*
X224000Y813000D03*
X176000Y813000D03*
X164000Y813000D03*
X152000Y813000D03*
X140000Y813000D03*
X128000Y813000D03*
X116000Y813000D03*
X104000Y813000D03*
X248000Y801000D03*
X236000Y801000D03*
X224000Y801000D03*
X176000Y801000D03*
X164000Y801000D03*
X152000Y801000D03*
X140000Y801000D03*
X116000Y801000D03*
X104000Y801000D03*
X248000Y789000D03*
X236000Y789000D03*
X164000Y789000D03*
X152000Y789000D03*
X104000Y789000D03*
X248000Y777000D03*
X236000Y777000D03*
X164000Y777000D03*
X152000Y777000D03*
X248000Y765000D03*
X236000Y765000D03*
X164000Y765000D03*
X152000Y765000D03*
X296000Y753000D03*
X284000Y753000D03*
X272000Y753000D03*
X260000Y753000D03*
X248000Y753000D03*
X236000Y753000D03*
X296000Y693000D03*
X284000Y693000D03*
X272000Y693000D03*
X260000Y693000D03*
X296000Y681000D03*
X284000Y681000D03*
X272000Y681000D03*
X260000Y681000D03*
X260000Y705000D03*
X272000Y705000D03*
X284000Y705000D03*
X296000Y705000D03*
X152000Y717000D03*
X164000Y717000D03*
X176000Y717000D03*
X188000Y717000D03*
X200000Y717000D03*
X212000Y717000D03*
X224000Y717000D03*
X236000Y717000D03*
X248000Y717000D03*
X260000Y717000D03*
X272000Y717000D03*
X284000Y717000D03*
X296000Y717000D03*
X140000Y729000D03*
X152000Y729000D03*
X164000Y729000D03*
X176000Y729000D03*
X224000Y729000D03*
X236000Y729000D03*
X248000Y729000D03*
X260000Y729000D03*
X272000Y729000D03*
X284000Y729000D03*
X296000Y729000D03*
X140000Y741000D03*
X152000Y741000D03*
X164000Y741000D03*
X176000Y741000D03*
X224000Y741000D03*
X236000Y741000D03*
X248000Y741000D03*
X260000Y741000D03*
X272000Y741000D03*
X284000Y741000D03*
X296000Y741000D03*
X152000Y753000D03*
X164000Y753000D03*
X176000Y753000D03*
X224000Y753000D03*
X518000Y813000D03*
X506000Y813000D03*
X494000Y813000D03*
X482000Y813000D03*
X470000Y813000D03*
X458000Y813000D03*
X446000Y813000D03*
X434000Y813000D03*
X422000Y813000D03*
X410000Y813000D03*
X314000Y813000D03*
X326000Y813000D03*
X338000Y813000D03*
X350000Y813000D03*
X362000Y813000D03*
X374000Y813000D03*
X386000Y813000D03*
X398000Y813000D03*
M02*
