G04 EAGLE Gerber RS-274X export*
G75*
%MOMM*%
%FSLAX34Y34*%
%LPD*%
%INSolderpaste Top*%
%IPPOS*%
%AMOC8*
5,1,8,0,0,1.08239X$1,22.5*%
G01*
G04 Define Apertures*
%ADD10R,1.600000X1.800000*%
%ADD11R,1.500000X0.650000*%
%ADD12R,1.525000X0.650000*%
%ADD13R,2.475000X3.000000*%
%ADD14R,3.000000X2.475000*%
%ADD15R,0.600000X1.200000*%
%ADD16R,2.150000X3.700000*%
%ADD17R,1.800000X1.600000*%
%ADD18R,0.800000X0.900000*%
%ADD19R,1.500000X1.500000*%
%ADD20R,2.200000X1.450000*%
%ADD21R,1.050000X1.820000*%
%ADD22R,1.820000X1.050000*%
%ADD23R,1.370000X1.120000*%
D10*
X661000Y552000D03*
X633000Y552000D03*
X660000Y78000D03*
X632000Y78000D03*
X662000Y389000D03*
X634000Y389000D03*
X661000Y242000D03*
X633000Y242000D03*
X394269Y530000D03*
X422269Y530000D03*
X422745Y494000D03*
X394745Y494000D03*
X426476Y335524D03*
X398476Y335524D03*
X399000Y369000D03*
X427000Y369000D03*
X396000Y52000D03*
X424000Y52000D03*
G36*
X415633Y30054D02*
X431629Y29775D01*
X431315Y11778D01*
X415319Y12057D01*
X415633Y30054D01*
G37*
G36*
X387637Y30542D02*
X403633Y30263D01*
X403319Y12266D01*
X387323Y12545D01*
X387637Y30542D01*
G37*
X424000Y179524D03*
X396000Y179524D03*
X395000Y213000D03*
X423000Y213000D03*
D11*
X563000Y550950D03*
X563000Y563650D03*
X563000Y576350D03*
X563000Y589050D03*
X509000Y589050D03*
X509000Y576350D03*
X509000Y563650D03*
X509000Y550950D03*
X566000Y76950D03*
X566000Y89650D03*
X566000Y102350D03*
X566000Y115050D03*
X512000Y115050D03*
X512000Y102350D03*
X512000Y89650D03*
X512000Y76950D03*
X566000Y390950D03*
X566000Y403650D03*
X566000Y416350D03*
X566000Y429050D03*
X512000Y429050D03*
X512000Y416350D03*
X512000Y403650D03*
X512000Y390950D03*
X566000Y233950D03*
X566000Y246650D03*
X566000Y259350D03*
X566000Y272050D03*
X512000Y272050D03*
X512000Y259350D03*
X512000Y246650D03*
X512000Y233950D03*
D12*
X396120Y429226D03*
X396120Y416526D03*
X396120Y403826D03*
X396120Y391126D03*
X449880Y391126D03*
X449880Y403826D03*
X449880Y416526D03*
X449880Y429226D03*
X395120Y590050D03*
X395120Y577350D03*
X395120Y564650D03*
X395120Y551950D03*
X448880Y551950D03*
X448880Y564650D03*
X448880Y577350D03*
X448880Y590050D03*
X396120Y115050D03*
X396120Y102350D03*
X396120Y89650D03*
X396120Y76950D03*
X449880Y76950D03*
X449880Y89650D03*
X449880Y102350D03*
X449880Y115050D03*
X396120Y271050D03*
X396120Y258350D03*
X396120Y245650D03*
X396120Y232950D03*
X449880Y232950D03*
X449880Y245650D03*
X449880Y258350D03*
X449880Y271050D03*
D10*
X663000Y707000D03*
X635000Y707000D03*
X392000Y687000D03*
X420000Y687000D03*
X421000Y652000D03*
X393000Y652000D03*
D11*
X563000Y709950D03*
X563000Y722650D03*
X563000Y735350D03*
X563000Y748050D03*
X509000Y748050D03*
X509000Y735350D03*
X509000Y722650D03*
X509000Y709950D03*
D12*
X397120Y750050D03*
X397120Y737350D03*
X397120Y724650D03*
X397120Y711950D03*
X450880Y711950D03*
X450880Y724650D03*
X450880Y737350D03*
X450880Y750050D03*
D13*
X447000Y145524D03*
X393250Y145524D03*
X500750Y145524D03*
X446000Y301000D03*
X392250Y301000D03*
X499750Y301000D03*
X448000Y459476D03*
X394250Y459476D03*
X501750Y459476D03*
X442000Y618000D03*
X388250Y618000D03*
X495750Y618000D03*
D14*
G36*
X429599Y763022D02*
X429652Y793021D01*
X454401Y792978D01*
X454348Y762979D01*
X429599Y763022D01*
G37*
G36*
X375849Y763116D02*
X375902Y793115D01*
X400651Y793072D01*
X400598Y763073D01*
X375849Y763116D01*
G37*
G36*
X483349Y762928D02*
X483402Y792927D01*
X508151Y792884D01*
X508098Y762885D01*
X483349Y762928D01*
G37*
D13*
X171956Y687173D03*
X225706Y687173D03*
X118206Y687173D03*
X512000Y39160D03*
X458250Y39160D03*
X565750Y39160D03*
X508649Y512176D03*
X454899Y512176D03*
X562399Y512176D03*
X510000Y193000D03*
X456250Y193000D03*
X563750Y193000D03*
X508000Y668176D03*
X454250Y668176D03*
X561750Y668176D03*
X511000Y355000D03*
X457250Y355000D03*
X564750Y355000D03*
D15*
X832500Y589500D03*
X842000Y589500D03*
X851500Y589500D03*
X851500Y614500D03*
X842000Y614500D03*
X832500Y614500D03*
D10*
X880000Y562326D03*
X852000Y562326D03*
X825000Y561850D03*
X797000Y561850D03*
D16*
X278594Y785340D03*
X278594Y853340D03*
D17*
X364000Y701000D03*
X364000Y729000D03*
X365476Y542000D03*
X365476Y570000D03*
X368000Y380000D03*
X368000Y408000D03*
X368000Y223000D03*
X368000Y251000D03*
X369000Y66000D03*
X369000Y94000D03*
D10*
X809000Y120000D03*
X837000Y120000D03*
X636000Y512000D03*
X664000Y512000D03*
X697000Y552000D03*
X725000Y552000D03*
X634000Y590000D03*
X662000Y590000D03*
D18*
X696500Y590000D03*
X719500Y590000D03*
D19*
X694500Y513000D03*
X729500Y513000D03*
D10*
X635000Y666000D03*
X663000Y666000D03*
X699000Y706000D03*
X727000Y706000D03*
X635000Y745000D03*
X663000Y745000D03*
D18*
X698500Y744000D03*
X721500Y744000D03*
D19*
X693500Y667000D03*
X728500Y667000D03*
D10*
X632000Y37000D03*
X660000Y37000D03*
X694000Y78000D03*
X722000Y78000D03*
X632000Y113000D03*
X660000Y113000D03*
D18*
X695500Y113000D03*
X718500Y113000D03*
D19*
X690500Y37000D03*
X725500Y37000D03*
D10*
X633000Y200000D03*
X661000Y200000D03*
X687000Y242000D03*
X715000Y242000D03*
X633000Y279000D03*
X661000Y279000D03*
D18*
X683500Y279000D03*
X706500Y279000D03*
D19*
X687500Y200000D03*
X722500Y200000D03*
D10*
X634000Y351000D03*
X662000Y351000D03*
D17*
X690000Y420500D03*
X690000Y392500D03*
D10*
X635000Y428000D03*
X663000Y428000D03*
D18*
X663500Y459000D03*
X686500Y459000D03*
D19*
X687500Y313000D03*
X687500Y348000D03*
X806500Y90000D03*
X841500Y90000D03*
D20*
X777000Y612000D03*
X777000Y592000D03*
D21*
X879900Y534000D03*
X852100Y534000D03*
D22*
X808000Y586100D03*
X808000Y613900D03*
X879690Y588376D03*
X879690Y616176D03*
D21*
X879590Y504776D03*
X851790Y504776D03*
D23*
X823240Y505000D03*
X823240Y535000D03*
D10*
X99000Y652000D03*
X127000Y652000D03*
M02*
